<?xml version="1.0" encoding="UTF-8"?>
<svg xmlns="http://www.w3.org/2000/svg" viewBox="0 0 700 310" width="700" height="310" font-family="system-ui,-apple-system,BlinkMacSystemFont,'Segoe UI',sans-serif">
  <defs>
    <linearGradient id="bg" x1="0" y1="0" x2="1" y2="1">
      <stop offset="0%" stop-color="#080c14"/>
      <stop offset="100%" stop-color="#0d1520"/>
    </linearGradient>
  </defs>

  <!-- Background -->
  <rect width="700" height="310" fill="url(#bg)" rx="8"/>

  <!-- Subtle grid -->
  <line x1="0" y1="155" x2="700" y2="155" stroke="#0d1a2a" stroke-width="1"/>

  <!-- Header label -->
  <text x="350" y="22" text-anchor="middle" font-size="11" font-weight="600" fill="#94a3b8" letter-spacing="1">MLO VS. LINK AGGREGATION — WHERE EACH OPERATES</text>

  <!-- Divider -->
  <line x1="350" y1="34" x2="350" y2="266" stroke="#1e3a5f" stroke-width="1.5" stroke-dasharray="4,3"/>

  <!-- LEFT STACK — WiFi / MLO -->
  <text x="175" y="46" text-anchor="middle" font-size="12" font-weight="700" fill="#94a3b8">WiFi 7 / MLO</text>

  <!-- "Single interface to OS" badge -->
  <rect x="60" y="52" width="230" height="22" fill="#071810" stroke="#34d399" stroke-width="1" rx="4"/>
  <text x="175" y="67" text-anchor="middle" font-size="10" fill="#a7f3d0">OS sees one interface · one IP address</text>

  <!-- Layer: Application -->
  <rect x="45" y="78" width="260" height="36" fill="#0a1628" stroke="#1e3a5f" stroke-width="1" rx="5"/>
  <text x="175" y="100" text-anchor="middle" font-size="12" fill="#94a3b8">Application</text>

  <!-- Layer: IP -->
  <rect x="45" y="118" width="260" height="36" fill="#0a1628" stroke="#1e3a5f" stroke-width="1" rx="5"/>
  <text x="175" y="140" text-anchor="middle" font-size="12" fill="#94a3b8">IP / TCP / UDP</text>

  <!-- Layer: 802.11 MAC — MLO highlighted -->
  <rect x="45" y="158" width="260" height="40" fill="#071810" stroke="#34d399" stroke-width="2" rx="5"/>
  <text x="145" y="175" text-anchor="middle" font-size="12" font-weight="700" fill="#a7f3d0">802.11 MAC</text>
  <rect x="238" y="162" width="58" height="22" fill="#34d399" rx="3"/>
  <text x="267" y="177" text-anchor="middle" font-size="9" font-weight="700" fill="#071810">MLO here</text>

  <!-- Layer: PHY — 3 bands -->
  <rect x="45" y="204" width="80" height="34" fill="#150808" stroke="#f97316" stroke-width="1.5" rx="5"/>
  <text x="85" y="224" text-anchor="middle" font-size="11" font-weight="600" fill="#fed7aa">2.4 GHz</text>

  <rect x="130" y="204" width="80" height="34" fill="#071810" stroke="#34d399" stroke-width="1.5" rx="5"/>
  <text x="170" y="224" text-anchor="middle" font-size="11" font-weight="600" fill="#a7f3d0">5 GHz</text>

  <rect x="215" y="204" width="80" height="34" fill="#0e1a3a" stroke="#38bdf8" stroke-width="1.5" rx="5"/>
  <text x="255" y="224" text-anchor="middle" font-size="11" font-weight="600" fill="#bae6fd">6 GHz</text>

  <!-- PHY label -->
  <text x="175" y="254" text-anchor="middle" font-size="10" fill="#94a3b8">Physical — wireless radios</text>

  <!-- RIGHT STACK — Ethernet / LACP -->
  <text x="525" y="46" text-anchor="middle" font-size="12" font-weight="700" fill="#94a3b8">Ethernet / LACP</text>

  <!-- "Single interface to OS" badge -->
  <rect x="410" y="52" width="230" height="22" fill="#0e1a3a" stroke="#38bdf8" stroke-width="1" rx="4"/>
  <text x="525" y="67" text-anchor="middle" font-size="10" fill="#bae6fd">OS sees one interface · one IP address</text>

  <!-- Layer: Application -->
  <rect x="395" y="78" width="260" height="36" fill="#0a1628" stroke="#1e3a5f" stroke-width="1" rx="5"/>
  <text x="525" y="100" text-anchor="middle" font-size="12" fill="#94a3b8">Application</text>

  <!-- Layer: IP -->
  <rect x="395" y="118" width="260" height="36" fill="#0a1628" stroke="#1e3a5f" stroke-width="1" rx="5"/>
  <text x="525" y="140" text-anchor="middle" font-size="12" fill="#94a3b8">IP / TCP / UDP</text>

  <!-- Layer: Ethernet MAC — LACP highlighted -->
  <rect x="395" y="158" width="260" height="40" fill="#0e1a3a" stroke="#38bdf8" stroke-width="2" rx="5"/>
  <text x="495" y="175" text-anchor="middle" font-size="12" font-weight="700" fill="#bae6fd">Ethernet MAC</text>
  <rect x="582" y="162" width="62" height="22" fill="#38bdf8" rx="3"/>
  <text x="613" y="177" text-anchor="middle" font-size="9" font-weight="700" fill="#0e1a3a">LACP here</text>

  <!-- Layer: PHY — 2 ports -->
  <rect x="395" y="204" width="122" height="34" fill="#0a1628" stroke="#334155" stroke-width="1.5" rx="5"/>
  <text x="456" y="224" text-anchor="middle" font-size="11" font-weight="600" fill="#94a3b8">Port 1</text>

  <rect x="523" y="204" width="122" height="34" fill="#0a1628" stroke="#334155" stroke-width="1.5" rx="5"/>
  <text x="584" y="224" text-anchor="middle" font-size="11" font-weight="600" fill="#94a3b8">Port 2</text>

  <!-- PHY label -->
  <text x="525" y="254" text-anchor="middle" font-size="10" fill="#94a3b8">Physical — Ethernet ports</text>

  <!-- Footer caption -->
  <text x="350" y="293" text-anchor="middle" font-size="9" fill="#94a3b8">Both create one logical interface — but MLO is wireless-only and operates below the IP layer</text>
</svg>
