<?xml version="1.0" encoding="UTF-8"?>
<svg xmlns="http://www.w3.org/2000/svg" viewBox="0 0 700 250" width="700" height="250"
     font-family="system-ui,-apple-system,BlinkMacSystemFont,'Segoe UI',sans-serif">
  <defs>
    <linearGradient id="bg" x1="0" y1="0" x2="1" y2="1">
      <stop offset="0%" stop-color="#080c14"/>
      <stop offset="100%" stop-color="#0d1520"/>
    </linearGradient>
  </defs>

  <rect width="700" height="250" fill="url(#bg)" rx="8"/>

  <line x1="350" y1="20" x2="350" y2="235" stroke="#1e3a5f" stroke-width="1.5" stroke-dasharray="4,3"/>

  <text x="175" y="22" text-anchor="middle" font-size="12" font-weight="700" fill="#7dd3fc">WiFi 7 client — MLO</text>
  <text x="525" y="22" text-anchor="middle" font-size="12" font-weight="700" fill="#7dd3fc">Ethernet — LACP</text>

  <!-- Application -->
  <rect x="45" y="34" width="260" height="40" fill="none" stroke="#38bdf8" stroke-width="1.5" rx="5"/>
  <text x="175" y="52" text-anchor="middle" font-size="12" font-weight="600" fill="#bae6fd">Application</text>
  <text x="175" y="67" text-anchor="middle" font-size="9" fill="#38bdf8">single logical interface</text>

  <rect x="395" y="34" width="260" height="40" fill="none" stroke="#38bdf8" stroke-width="1.5" rx="5"/>
  <text x="525" y="52" text-anchor="middle" font-size="12" font-weight="600" fill="#bae6fd">Application</text>
  <text x="525" y="67" text-anchor="middle" font-size="9" fill="#38bdf8">single logical interface</text>

  <!-- IP -->
  <rect x="45" y="84" width="260" height="40" fill="none" stroke="#38bdf8" stroke-width="1.5" rx="5"/>
  <text x="175" y="102" text-anchor="middle" font-size="12" font-weight="600" fill="#bae6fd">IP</text>
  <text x="175" y="117" text-anchor="middle" font-size="9" fill="#38bdf8">single IP address</text>

  <rect x="395" y="84" width="260" height="40" fill="none" stroke="#38bdf8" stroke-width="1.5" rx="5"/>
  <text x="525" y="102" text-anchor="middle" font-size="12" font-weight="600" fill="#bae6fd">IP</text>
  <text x="525" y="117" text-anchor="middle" font-size="9" fill="#38bdf8">single IP address</text>

  <!-- MAC layer — where MLO / LACP actually operates -->
  <rect x="45" y="134" width="260" height="40" fill="none" stroke="#34d399" stroke-width="1.5" rx="5"/>
  <text x="175" y="152" text-anchor="middle" font-size="12" font-weight="600" fill="#86efac">802.11 MAC</text>
  <text x="175" y="167" text-anchor="middle" font-size="9" fill="#34d399">multi-link scheduling</text>

  <rect x="395" y="134" width="260" height="40" fill="none" stroke="#34d399" stroke-width="1.5" rx="5"/>
  <text x="525" y="152" text-anchor="middle" font-size="12" font-weight="600" fill="#86efac">Ethernet MAC</text>
  <text x="525" y="167" text-anchor="middle" font-size="9" fill="#34d399">LACP port bonding</text>

  <text x="175" y="189" text-anchor="middle" font-size="9" font-weight="600" fill="#34d399">MLO operates here</text>
  <text x="525" y="189" text-anchor="middle" font-size="9" font-weight="600" fill="#34d399">LACP operates here</text>

  <!-- PHY -->
  <rect x="45" y="200" width="260" height="40" fill="none" stroke="#38bdf8" stroke-width="1.5" rx="5"/>
  <text x="175" y="218" text-anchor="middle" font-size="12" font-weight="600" fill="#bae6fd">PHY</text>
  <text x="175" y="233" text-anchor="middle" font-size="9" fill="#38bdf8">2.4 / 5 / 6 GHz radios</text>

  <rect x="395" y="200" width="260" height="40" fill="none" stroke="#38bdf8" stroke-width="1.5" rx="5"/>
  <text x="525" y="218" text-anchor="middle" font-size="12" font-weight="600" fill="#bae6fd">PHY</text>
  <text x="525" y="233" text-anchor="middle" font-size="9" fill="#38bdf8">multiple physical ports</text>
</svg>
