<?xml version="1.0" encoding="UTF-8"?>
<svg xmlns="http://www.w3.org/2000/svg" viewBox="0 0 700 200" width="700" height="200" font-family="system-ui,-apple-system,BlinkMacSystemFont,'Segoe UI',sans-serif">
  <defs>
    <linearGradient id="bg" x1="0" y1="0" x2="1" y2="1">
      <stop offset="0%" stop-color="#080c14"/>
      <stop offset="100%" stop-color="#0d1520"/>
    </linearGradient>
  </defs>

  <rect width="700" height="200" fill="url(#bg)" rx="8"/>

  <text x="30" y="35" font-size="11" font-weight="600" fill="#7dd3fc">WiFi 6 — one contiguous block per client</text>
  <rect x="30"  y="45" width="150" height="40" fill="none" stroke="#38bdf8" stroke-width="1.5" rx="5"/>
  <text x="105" y="70" text-anchor="middle" font-size="11" font-weight="600" fill="#bae6fd">Client A</text>
  <rect x="182" y="45" width="150" height="40" fill="none" stroke="#34d399" stroke-width="1.5" rx="5"/>
  <text x="257" y="70" text-anchor="middle" font-size="11" font-weight="600" fill="#86efac">Client B</text>
  <rect x="334" y="45" width="150" height="40" fill="none" stroke="#f97316" stroke-width="1.5" rx="5"/>
  <text x="409" y="70" text-anchor="middle" font-size="11" font-weight="600" fill="#fed7aa">Client C</text>
  <rect x="486" y="45" width="150" height="40" fill="none" stroke="#8b5cf6" stroke-width="1.5" rx="5"/>
  <text x="561" y="70" text-anchor="middle" font-size="11" font-weight="600" fill="#c4b5fd">Client D</text>

  <line x1="30" y1="105" x2="670" y2="105" stroke="#0d1a2a" stroke-width="1"/>

  <text x="30" y="128" font-size="11" font-weight="600" fill="#7dd3fc">WiFi 7 Multi-RU — non-contiguous, same window</text>
  <rect x="30"  y="138" width="72" height="36" fill="none" stroke="#38bdf8" stroke-width="1.5" rx="4"/>
  <text x="66" y="161" text-anchor="middle" font-size="10" font-weight="600" fill="#bae6fd">A</text>
  <rect x="106" y="138" width="72" height="36" fill="none" stroke="#34d399" stroke-width="1.5" rx="4"/>
  <text x="142" y="161" text-anchor="middle" font-size="10" font-weight="600" fill="#86efac">B</text>
  <rect x="182" y="138" width="72" height="36" fill="none" stroke="#38bdf8" stroke-width="1.5" rx="4"/>
  <text x="218" y="161" text-anchor="middle" font-size="10" font-weight="600" fill="#bae6fd">A</text>
  <rect x="258" y="138" width="72" height="36" fill="none" stroke="#f97316" stroke-width="1.5" rx="4"/>
  <text x="294" y="161" text-anchor="middle" font-size="10" font-weight="600" fill="#fed7aa">C</text>
  <rect x="334" y="138" width="72" height="36" fill="none" stroke="#34d399" stroke-width="1.5" rx="4"/>
  <text x="370" y="161" text-anchor="middle" font-size="10" font-weight="600" fill="#86efac">B</text>
  <rect x="410" y="138" width="72" height="36" fill="none" stroke="#38bdf8" stroke-width="1.5" rx="4"/>
  <text x="446" y="161" text-anchor="middle" font-size="10" font-weight="600" fill="#bae6fd">A</text>
  <rect x="486" y="138" width="72" height="36" fill="none" stroke="#f97316" stroke-width="1.5" rx="4"/>
  <text x="522" y="161" text-anchor="middle" font-size="10" font-weight="600" fill="#fed7aa">C</text>
  <rect x="562" y="138" width="72" height="36" fill="none" stroke="#34d399" stroke-width="1.5" rx="4"/>
  <text x="598" y="161" text-anchor="middle" font-size="10" font-weight="600" fill="#86efac">B</text>

  <text x="350" y="192" text-anchor="middle" font-size="9" fill="#64748b">Each client's sub-bands can sit anywhere in the channel, not just contiguously</text>
</svg>
