<?xml version="1.0" encoding="UTF-8"?>
<svg xmlns="http://www.w3.org/2000/svg" viewBox="0 0 700 220" width="700" height="220" font-family="system-ui,-apple-system,BlinkMacSystemFont,'Segoe UI',sans-serif">
  <defs>
    <linearGradient id="bg" x1="0" y1="0" x2="1" y2="1">
      <stop offset="0%" stop-color="#080c14"/>
      <stop offset="100%" stop-color="#0d1520"/>
    </linearGradient>
  </defs>

  <rect width="700" height="220" fill="url(#bg)" rx="8"/>

  <text x="48" y="35" font-size="11" font-weight="600" fill="#7dd3fc">Without puncturing — 160 MHz effective</text>
  <rect x="48" y="45" width="300" height="36" fill="none" stroke="#38bdf8" stroke-width="1.5" rx="4"/>
  <text x="198" y="68" text-anchor="middle" font-size="10" font-weight="600" fill="#bae6fd">Active — 160 MHz</text>
  <rect x="350" y="45" width="150" height="36" fill="none" stroke="#ef4444" stroke-width="1.5" rx="4"/>
  <text x="425" y="68" text-anchor="middle" font-size="10" font-weight="600" fill="#fca5a5">Interference</text>
  <rect x="502" y="45" width="150" height="36" fill="none" stroke="#334155" stroke-width="1.5" rx="4"/>
  <text x="577" y="68" text-anchor="middle" font-size="10" fill="#94a3b8">Unused</text>

  <line x1="30" y1="100" x2="670" y2="100" stroke="#0d1a2a" stroke-width="1"/>

  <text x="48" y="123" font-size="11" font-weight="600" fill="#7dd3fc">With Preamble Puncturing — 240 MHz effective</text>
  <rect x="48" y="133" width="300" height="36" fill="none" stroke="#38bdf8" stroke-width="1.5" rx="4"/>
  <text x="198" y="156" text-anchor="middle" font-size="10" font-weight="600" fill="#bae6fd">Active — 160 MHz</text>
  <rect x="350" y="133" width="150" height="36" fill="none" stroke="#64748b" stroke-width="1.5" stroke-dasharray="4,3" rx="4"/>
  <text x="425" y="156" text-anchor="middle" font-size="10" fill="#94a3b8">Punctured — skipped</text>
  <rect x="502" y="133" width="150" height="36" fill="none" stroke="#38bdf8" stroke-width="1.5" rx="4"/>
  <text x="577" y="156" text-anchor="middle" font-size="10" font-weight="600" fill="#bae6fd">Active — 80 MHz</text>

  <text x="350" y="190" text-anchor="middle" font-size="9" fill="#94a3b8">The 80 MHz interference zone is skipped; both sides stay active instead of falling back to 160 MHz</text>
</svg>
