<?xml version="1.0" encoding="UTF-8"?>
<svg xmlns="http://www.w3.org/2000/svg" viewBox="0 0 1200 630" width="1200" height="630"
     font-family="system-ui,-apple-system,BlinkMacSystemFont,'Segoe UI',sans-serif">
  <defs>
    <linearGradient id="bg" x1="0" y1="0" x2="1" y2="1">
      <stop offset="0%" stop-color="#060d1f"/>
      <stop offset="100%" stop-color="#0f1f3d"/>
    </linearGradient>
    <linearGradient id="ga" x1="0" y1="0" x2="0" y2="1">
      <stop offset="0%" stop-color="#7dd3fc"/>
      <stop offset="100%" stop-color="#0c4a6e" stop-opacity="0.3"/>
    </linearGradient>
    <linearGradient id="gb" x1="0" y1="0" x2="0" y2="1">
      <stop offset="0%" stop-color="#6ee7b7"/>
      <stop offset="100%" stop-color="#064e3b" stop-opacity="0.3"/>
    </linearGradient>
    <linearGradient id="gc" x1="0" y1="0" x2="0" y2="1">
      <stop offset="0%" stop-color="#fdba74"/>
      <stop offset="100%" stop-color="#7c2d12" stop-opacity="0.3"/>
    </linearGradient>
    <linearGradient id="gd" x1="0" y1="0" x2="0" y2="1">
      <stop offset="0%" stop-color="#c084fc"/>
      <stop offset="100%" stop-color="#3b0764" stop-opacity="0.3"/>
    </linearGradient>
    <linearGradient id="textbg" x1="0" y1="0" x2="0" y2="1">
      <stop offset="0%" stop-color="#060d1f" stop-opacity="0"/>
      <stop offset="70%" stop-color="#060d1f" stop-opacity="0.92"/>
      <stop offset="100%" stop-color="#060d1f" stop-opacity="1"/>
    </linearGradient>
  </defs>

  <!-- Background -->
  <rect width="1200" height="630" fill="url(#bg)"/>

  <!-- Grid lines -->
  <g stroke="#0f2040" stroke-width="1">
    <line x1="80" y1="120" x2="1120" y2="120"/>
    <line x1="80" y1="180" x2="1120" y2="180"/>
    <line x1="80" y1="240" x2="1120" y2="240"/>
    <line x1="80" y1="300" x2="1120" y2="300"/>
    <line x1="80" y1="360" x2="1120" y2="360"/>
    <line x1="80" y1="420" x2="1120" y2="420"/>
    <line x1="80" y1="460" x2="1120" y2="460"/>
  </g>

  <!-- Baseline -->
  <line x1="80" y1="461" x2="1120" y2="461" stroke="#1e3a5f" stroke-width="2"/>

  <!-- === Client A — blue (bars x: 106,154,202,250,298) === -->
  <rect x="106" y="261" width="40" height="199" fill="url(#ga)" rx="3"/>
  <rect x="154" y="201" width="40" height="259" fill="url(#ga)" rx="3"/>
  <rect x="202" y="231" width="40" height="229" fill="url(#ga)" rx="3"/>
  <rect x="250" y="181" width="40" height="279" fill="url(#ga)" rx="3"/>
  <rect x="298" y="251" width="40" height="209" fill="url(#ga)" rx="3"/>
  <!-- top glow caps -->
  <rect x="106" y="259" width="40" height="5" fill="#bae6fd" rx="2"/>
  <rect x="154" y="199" width="40" height="5" fill="#bae6fd" rx="2"/>
  <rect x="202" y="229" width="40" height="5" fill="#bae6fd" rx="2"/>
  <rect x="250" y="179" width="40" height="5" fill="#bae6fd" rx="2"/>
  <rect x="298" y="249" width="40" height="5" fill="#bae6fd" rx="2"/>
  <!-- label -->
  <text x="202" y="100" text-anchor="middle" font-size="14" font-weight="600" fill="#7dd3fc" letter-spacing="2">DEVICE A</text>

  <!-- divider -->
  <line x1="355" y1="80" x2="355" y2="461" stroke="#1e3a5f" stroke-width="1" stroke-dasharray="6,4"/>

  <!-- === Client B — green (bars x: 358,406,454,502,550) === -->
  <rect x="358" y="301" width="40" height="159" fill="url(#gb)" rx="3"/>
  <rect x="406" y="271" width="40" height="189" fill="url(#gb)" rx="3"/>
  <rect x="454" y="291" width="40" height="169" fill="url(#gb)" rx="3"/>
  <rect x="502" y="261" width="40" height="199" fill="url(#gb)" rx="3"/>
  <rect x="550" y="281" width="40" height="179" fill="url(#gb)" rx="3"/>
  <rect x="358" y="299" width="40" height="5" fill="#a7f3d0" rx="2"/>
  <rect x="406" y="269" width="40" height="5" fill="#a7f3d0" rx="2"/>
  <rect x="454" y="289" width="40" height="5" fill="#a7f3d0" rx="2"/>
  <rect x="502" y="259" width="40" height="5" fill="#a7f3d0" rx="2"/>
  <rect x="550" y="279" width="40" height="5" fill="#a7f3d0" rx="2"/>
  <text x="454" y="100" text-anchor="middle" font-size="14" font-weight="600" fill="#6ee7b7" letter-spacing="2">DEVICE B</text>

  <!-- divider -->
  <line x1="607" y1="80" x2="607" y2="461" stroke="#1e3a5f" stroke-width="1" stroke-dasharray="6,4"/>

  <!-- === Client C — orange (bars x: 610,658,706,754,802) === -->
  <rect x="610" y="221" width="40" height="239" fill="url(#gc)" rx="3"/>
  <rect x="658" y="171" width="40" height="289" fill="url(#gc)" rx="3"/>
  <rect x="706" y="201" width="40" height="259" fill="url(#gc)" rx="3"/>
  <rect x="754" y="151" width="40" height="309" fill="url(#gc)" rx="3"/>
  <rect x="802" y="211" width="40" height="249" fill="url(#gc)" rx="3"/>
  <rect x="610" y="219" width="40" height="5" fill="#fed7aa" rx="2"/>
  <rect x="658" y="169" width="40" height="5" fill="#fed7aa" rx="2"/>
  <rect x="706" y="199" width="40" height="5" fill="#fed7aa" rx="2"/>
  <rect x="754" y="149" width="40" height="5" fill="#fed7aa" rx="2"/>
  <rect x="802" y="209" width="40" height="5" fill="#fed7aa" rx="2"/>
  <text x="706" y="100" text-anchor="middle" font-size="14" font-weight="600" fill="#fdba74" letter-spacing="2">DEVICE C</text>

  <!-- divider -->
  <line x1="859" y1="80" x2="859" y2="461" stroke="#1e3a5f" stroke-width="1" stroke-dasharray="6,4"/>

  <!-- === Client D — purple (bars x: 862,910,958,1006,1054) === -->
  <rect x="862" y="321" width="40" height="139" fill="url(#gd)" rx="3"/>
  <rect x="910" y="301" width="40" height="159" fill="url(#gd)" rx="3"/>
  <rect x="958" y="311" width="40" height="149" fill="url(#gd)" rx="3"/>
  <rect x="1006" y="291" width="40" height="169" fill="url(#gd)" rx="3"/>
  <rect x="1054" y="321" width="40" height="139" fill="url(#gd)" rx="3"/>
  <rect x="862" y="319" width="40" height="5" fill="#e9d5ff" rx="2"/>
  <rect x="910" y="299" width="40" height="5" fill="#e9d5ff" rx="2"/>
  <rect x="958" y="309" width="40" height="5" fill="#e9d5ff" rx="2"/>
  <rect x="1006" y="289" width="40" height="5" fill="#e9d5ff" rx="2"/>
  <rect x="1054" y="319" width="40" height="5" fill="#e9d5ff" rx="2"/>
  <text x="958" y="100" text-anchor="middle" font-size="14" font-weight="600" fill="#c084fc" letter-spacing="2">DEVICE D</text>

  <!-- OFDMA label -->
  <text x="600" y="494" text-anchor="middle" font-size="12" fill="#334155" letter-spacing="5">← OFDMA — ONE CHANNEL, FOUR DEVICES →</text>

  <!-- Bottom gradient overlay -->
  <rect x="0" y="390" width="1200" height="240" fill="url(#textbg)"/>

  <!-- Series label -->
  <text x="600" y="572" text-anchor="middle" font-size="13" fill="#38bdf8" letter-spacing="3" font-weight="600">WiFi Explained</text>

  <!-- Title -->
  <text x="600" y="610" text-anchor="middle" font-size="38" font-weight="700" fill="#f1f5f9">How Devices Share the Air</text>
</svg>
