<?xml version="1.0" encoding="UTF-8"?>
<svg xmlns="http://www.w3.org/2000/svg" viewBox="0 0 1200 630" width="1200" height="630"
     font-family="system-ui,-apple-system,BlinkMacSystemFont,'Segoe UI',sans-serif">
  <defs>
    <linearGradient id="bg" x1="0" y1="0" x2="1" y2="1">
      <stop offset="0%" stop-color="#080c14"/>
      <stop offset="100%" stop-color="#0d1520"/>
    </linearGradient>
    <linearGradient id="textbg" x1="0" y1="0" x2="0" y2="1">
      <stop offset="0%" stop-color="#080c14" stop-opacity="0"/>
      <stop offset="60%" stop-color="#080c14" stop-opacity="0.93"/>
      <stop offset="100%" stop-color="#080c14" stop-opacity="1"/>
    </linearGradient>
    <linearGradient id="prom-grad" x1="0" y1="1" x2="0" y2="0">
      <stop offset="0%" stop-color="#ef4444" stop-opacity="0.0"/>
      <stop offset="100%" stop-color="#ef4444" stop-opacity="0.5"/>
    </linearGradient>
    <linearGradient id="graf-grad" x1="0" y1="1" x2="0" y2="0">
      <stop offset="0%" stop-color="#f59e0b" stop-opacity="0.0"/>
      <stop offset="100%" stop-color="#f59e0b" stop-opacity="0.5"/>
    </linearGradient>
  </defs>

  <rect width="1200" height="630" fill="url(#bg)"/>

  <g stroke="#0d1a2a" stroke-width="1">
    <line x1="0" y1="100" x2="1200" y2="100"/>
    <line x1="0" y1="200" x2="1200" y2="200"/>
    <line x1="0" y1="300" x2="1200" y2="300"/>
    <line x1="0" y1="400" x2="1200" y2="400"/>
    <line x1="200" y1="0" x2="200" y2="500"/>
    <line x1="400" y1="0" x2="400" y2="500"/>
    <line x1="600" y1="0" x2="600" y2="500"/>
    <line x1="800" y1="0" x2="800" y2="500"/>
    <line x1="1000" y1="0" x2="1000" y2="500"/>
  </g>

  <!-- === Centered dashboard (3 stacked panels) === -->

  <!-- Panel 1: Prometheus metrics (red) -->
  <rect x="220" y="68" width="760" height="90" fill="#0d1e30" stroke="#ef4444" stroke-width="1.5" rx="6"/>
  <rect x="220" y="68" width="6" height="90" fill="#ef4444" rx="4"/>
  <text x="241" y="86" font-size="10" font-weight="700" fill="#ef4444" letter-spacing="1">PROMETHEUS</text>
  <text x="241" y="99" font-size="8" fill="#64748b" font-family="'Courier New',monospace">metrics · tsdb · alerting</text>
  <!-- Sparkline -->
  <polygon points="241,148 241,128 273,124 305,131 337,116 369,123 401,109 433,117 465,104 497,113 529,100 561,109 593,96 625,105 657,92 689,102 721,88 753,96 785,84 817,92 949,148"
           fill="url(#prom-grad)"/>
  <polyline points="241,128 273,124 305,131 337,116 369,123 401,109 433,117 465,104 497,113 529,100 561,109 593,96 625,105 657,92 689,102 721,88 753,96 785,84 817,92 949,88"
            fill="none" stroke="#ef4444" stroke-width="2" stroke-linejoin="round"/>
  <line x1="241" y1="148" x2="949" y2="148" stroke="#1e3040" stroke-width="1"/>

  <!-- Panel 2: Loki logs (purple) -->
  <rect x="220" y="172" width="760" height="95" fill="#0d1e30" stroke="#a78bfa" stroke-width="1.5" rx="6"/>
  <rect x="220" y="172" width="6" height="95" fill="#a78bfa" rx="4"/>
  <text x="241" y="190" font-size="10" font-weight="700" fill="#a78bfa" letter-spacing="1">LOKI</text>
  <text x="241" y="203" font-size="8" fill="#64748b" font-family="'Courier New',monospace">log storage · label-indexed</text>
  <g font-size="8.5" font-family="'Courier New',monospace">
    <text x="241" y="220" fill="#64748b"><tspan fill="#4ade80">INFO </tspan> component started  comp=loki.write.default</text>
    <text x="241" y="234" fill="#64748b"><tspan fill="#7dd3fc">INFO </tspan> flush complete  streams=12  bytes=4821</text>
    <text x="241" y="248" fill="#64748b"><tspan fill="#c4b5fd">DEBUG</tspan> write batch  entries=230  duration=4ms</text>
    <text x="241" y="260" fill="#64748b"><tspan fill="#ef4444">WARN </tspan> slow query  duration=2.3s  query=rate</text>
  </g>

  <!-- Panel 3: Grafana dashboard (amber) -->
  <rect x="220" y="281" width="760" height="90" fill="#0d1e30" stroke="#f59e0b" stroke-width="1.5" rx="6"/>
  <rect x="220" y="281" width="6" height="90" fill="#f59e0b" rx="4"/>
  <text x="241" y="299" font-size="10" font-weight="700" fill="#f59e0b" letter-spacing="1">GRAFANA</text>
  <text x="241" y="312" font-size="8" fill="#64748b" font-family="'Courier New',monospace">dashboards · panels · alerts</text>
  <!-- Bar chart growing left to right -->
  <g fill="#f59e0b" fill-opacity="0.7">
    <rect x="241" y="346" width="20" height="18" rx="1"/>
    <rect x="266" y="340" width="20" height="24" rx="1"/>
    <rect x="291" y="343" width="20" height="21" rx="1"/>
    <rect x="316" y="335" width="20" height="29" rx="1"/>
    <rect x="341" y="338" width="20" height="26" rx="1"/>
    <rect x="366" y="330" width="20" height="34" rx="1"/>
    <rect x="391" y="333" width="20" height="31" rx="1"/>
    <rect x="416" y="325" width="20" height="39" rx="1"/>
    <rect x="441" y="328" width="20" height="36" rx="1"/>
    <rect x="466" y="320" width="20" height="44" rx="1"/>
    <rect x="491" y="323" width="20" height="41" rx="1"/>
    <rect x="516" y="315" width="20" height="49" rx="1"/>
    <rect x="541" y="319" width="20" height="45" rx="1"/>
    <rect x="566" y="311" width="20" height="53" rx="1"/>
    <rect x="591" y="315" width="20" height="49" rx="1"/>
    <rect x="616" y="307" width="20" height="57" rx="1"/>
    <rect x="641" y="311" width="20" height="53" rx="1"/>
    <rect x="666" y="303" width="20" height="61" rx="1"/>
  </g>
  <line x1="241" y1="364" x2="949" y2="364" stroke="#1e3040" stroke-width="1"/>

  <!-- Bottom overlay -->
  <rect x="0" y="390" width="1200" height="240" fill="url(#textbg)"/>

  <rect x="250" y="418" width="220" height="30" fill="#052e16" stroke="#34d399" stroke-width="1.5" rx="15"/>
  <text x="360" y="438" text-anchor="middle" font-size="11" fill="#34d399" font-weight="600" letter-spacing="1">Stack Setup</text>
  <rect x="490" y="418" width="220" height="30" fill="#0c1a2e" stroke="#38bdf8" stroke-width="1.5" rx="15"/>
  <text x="600" y="438" text-anchor="middle" font-size="11" fill="#38bdf8" font-weight="600" letter-spacing="1">Host · Container Monitoring</text>
  <rect x="730" y="418" width="220" height="30" fill="#0c1a2e" stroke="#a78bfa" stroke-width="1.5" rx="15"/>
  <text x="840" y="438" text-anchor="middle" font-size="11" fill="#a78bfa" font-weight="600" letter-spacing="1">Log Monitoring</text>

  <text x="600" y="500" text-anchor="middle" font-size="13" fill="#f97316" letter-spacing="3" font-weight="600">OBSERVABILITY</text>
  <text x="600" y="538" text-anchor="middle" font-size="34" font-weight="700" fill="#f1f5f9">Grafana Observability</text>
</svg>
