<?xml version="1.0" encoding="UTF-8"?>
<svg xmlns="http://www.w3.org/2000/svg" viewBox="0 0 1200 630" width="1200" height="630"
     font-family="system-ui,-apple-system,BlinkMacSystemFont,'Segoe UI',sans-serif">
  <defs>
    <linearGradient id="bg" x1="0" y1="0" x2="1" y2="1">
      <stop offset="0%" stop-color="#080c14"/>
      <stop offset="100%" stop-color="#0d1520"/>
    </linearGradient>
    <linearGradient id="hex-fill" x1="0" y1="0" x2="0" y2="1">
      <stop offset="0%" stop-color="#0e3040"/>
      <stop offset="100%" stop-color="#071e2a"/>
    </linearGradient>
    <linearGradient id="textbg" x1="0" y1="0" x2="0" y2="1">
      <stop offset="0%" stop-color="#080c14" stop-opacity="0"/>
      <stop offset="60%" stop-color="#080c14" stop-opacity="0.93"/>
      <stop offset="100%" stop-color="#080c14" stop-opacity="1"/>
    </linearGradient>
    <radialGradient id="hex-glow" cx="50%" cy="50%" r="50%">
      <stop offset="0%" stop-color="#37BEC3" stop-opacity="0.12"/>
      <stop offset="100%" stop-color="#37BEC3" stop-opacity="0"/>
    </radialGradient>
  </defs>

  <rect width="1200" height="630" fill="url(#bg)"/>

  <!-- Grid -->
  <g stroke="#0d1a2a" stroke-width="1">
    <line x1="0" y1="100" x2="1200" y2="100"/>
    <line x1="0" y1="200" x2="1200" y2="200"/>
    <line x1="0" y1="300" x2="1200" y2="300"/>
    <line x1="0" y1="400" x2="1200" y2="400"/>
    <line x1="200" y1="0" x2="200" y2="500"/>
    <line x1="400" y1="0" x2="400" y2="500"/>
    <line x1="600" y1="0" x2="600" y2="500"/>
    <line x1="800" y1="0" x2="800" y2="500"/>
    <line x1="1000" y1="0" x2="1000" y2="500"/>
  </g>

  <!-- === Centered hexagon art === -->
  <circle cx="600" cy="205" r="220" fill="url(#hex-glow)"/>

  <!-- Outer faint rings -->
  <!-- flat-top hex, cx=300, cy=205 -->
  <polygon points="760,205 680,61 520,61 440,205 520,349 680,349"
           fill="none" stroke="#37BEC3" stroke-width="1" stroke-opacity="0.08"/>
  <polygon points="745,205 672,79 528,79 455,205 528,331 672,331"
           fill="none" stroke="#37BEC3" stroke-width="1" stroke-opacity="0.13"/>
  <polygon points="730,205 665,88 535,88 470,205 535,322 665,322"
           fill="none" stroke="#37BEC3" stroke-width="1" stroke-opacity="0.2"/>

  <!-- Main hexagon r=120 -->
  <polygon points="720,205 660,97 540,97 480,205 540,313 660,313"
           fill="url(#hex-fill)" stroke="#37BEC3" stroke-width="2.5"/>
  <!-- Inner double ring -->
  <polygon points="700,205 644,105 556,105 500,205 556,305 644,305"
           fill="none" stroke="#37BEC3" stroke-width="0.8" stroke-opacity="0.3"/>

  <!-- Corner dots -->
  <circle cx="720" cy="205" r="5" fill="#37BEC3"/>
  <circle cx="660" cy="97"  r="5" fill="#37BEC3" fill-opacity="0.8"/>
  <circle cx="540" cy="97"  r="5" fill="#37BEC3" fill-opacity="0.8"/>
  <circle cx="480" cy="205" r="5" fill="#37BEC3"/>
  <circle cx="540" cy="313" r="5" fill="#37BEC3" fill-opacity="0.8"/>
  <circle cx="660" cy="313" r="5" fill="#37BEC3" fill-opacity="0.8"/>

  <!-- Radiating spokes from corners -->
  <line x1="720" y1="205" x2="790" y2="205" stroke="#37BEC3" stroke-width="1.5" stroke-opacity="0.5"/>
  <line x1="660" y1="97"  x2="700" y2="50"  stroke="#37BEC3" stroke-width="1.5" stroke-opacity="0.4"/>
  <line x1="540" y1="97"  x2="500" y2="50"  stroke="#37BEC3" stroke-width="1.5" stroke-opacity="0.4"/>
  <line x1="480" y1="205" x2="410" y2="205" stroke="#37BEC3" stroke-width="1.5" stroke-opacity="0.5"/>
  <line x1="540" y1="313" x2="500" y2="360" stroke="#37BEC3" stroke-width="1.5" stroke-opacity="0.4"/>
  <line x1="660" y1="313" x2="700" y2="360" stroke="#37BEC3" stroke-width="1.5" stroke-opacity="0.4"/>

  <!-- Spoke endpoint dots -->
  <circle cx="790" cy="205" r="3" fill="#37BEC3" fill-opacity="0.6"/>
  <circle cx="700" cy="50"  r="3" fill="#37BEC3" fill-opacity="0.5"/>
  <circle cx="500" cy="50"  r="3" fill="#37BEC3" fill-opacity="0.5"/>
  <circle cx="410" cy="205" r="3" fill="#37BEC3" fill-opacity="0.6"/>
  <circle cx="500" cy="360" r="3" fill="#37BEC3" fill-opacity="0.5"/>
  <circle cx="700" cy="360" r="3" fill="#37BEC3" fill-opacity="0.5"/>

  <!-- Spoke endpoint labels -->
  <text x="800" y="209" font-size="9" fill="#37BEC3" fill-opacity="0.8" font-weight="600">Docker</text>
  <text x="703" y="46" text-anchor="middle" font-size="9" fill="#37BEC3" fill-opacity="0.8" font-weight="600">TLS</text>
  <text x="402" y="209" text-anchor="end" font-size="9" fill="#37BEC3" fill-opacity="0.8" font-weight="600">Bare Metal</text>

  <!-- Wordmark -->
  <text x="600" y="215" text-anchor="middle" font-size="30" font-weight="700" fill="#37BEC3" letter-spacing="6">traefik</text>

  <!-- Bottom overlay -->
  <rect x="0" y="390" width="1200" height="240" fill="url(#textbg)"/>

  <text x="600" y="500" text-anchor="middle" font-size="13" fill="#37BEC3" letter-spacing="3" font-weight="600">EDGE ROUTING</text>
  <text x="600" y="538" text-anchor="middle" font-size="34" font-weight="700" fill="#f1f5f9">Traefik Essentials</text>
</svg>
