<?xml version="1.0" encoding="UTF-8"?>
<svg xmlns="http://www.w3.org/2000/svg" viewBox="0 0 1200 630" width="1200" height="630"
     font-family="system-ui,-apple-system,BlinkMacSystemFont,'Segoe UI',sans-serif">
  <defs>
    <linearGradient id="bg" x1="0" y1="0" x2="1" y2="1">
      <stop offset="0%" stop-color="#0a0800"/>
      <stop offset="100%" stop-color="#190f00"/>
    </linearGradient>
    <linearGradient id="textbg" x1="0" y1="0" x2="0" y2="1">
      <stop offset="0%" stop-color="#0a0800" stop-opacity="0"/>
      <stop offset="60%" stop-color="#0a0800" stop-opacity="0.93"/>
      <stop offset="100%" stop-color="#0a0800" stop-opacity="1"/>
    </linearGradient>
    <radialGradient id="signal-glow" cx="25%" cy="40%" r="55%">
      <stop offset="0%" stop-color="#38bdf8" stop-opacity="0.12"/>
      <stop offset="100%" stop-color="#38bdf8" stop-opacity="0"/>
    </radialGradient>
  </defs>

  <rect width="1200" height="630" fill="url(#bg)"/>
  <rect width="1200" height="630" fill="url(#signal-glow)"/>

  <g stroke="#1a1000" stroke-width="1">
    <line x1="0" y1="100" x2="1200" y2="100"/>
    <line x1="0" y1="200" x2="1200" y2="200"/>
    <line x1="0" y1="300" x2="1200" y2="300"/>
    <line x1="0" y1="400" x2="1200" y2="400"/>
    <line x1="200" y1="0" x2="200" y2="500"/>
    <line x1="400" y1="0" x2="400" y2="500"/>
    <line x1="600" y1="0" x2="600" y2="500"/>
    <line x1="800" y1="0" x2="800" y2="500"/>
    <line x1="1000" y1="0" x2="1000" y2="500"/>
  </g>

  <!-- === Centered access point + band branches === -->
  <circle cx="420" cy="215" r="165" fill="#38bdf8" fill-opacity="0.05"/>
  <circle cx="420" cy="215" r="118" fill="#38bdf8" fill-opacity="0.04" stroke="#223040" stroke-width="1"/>

  <rect x="362" y="146" width="116" height="116" fill="#0c1623" stroke="#38bdf8" stroke-width="2" rx="18"/>
  <rect x="377" y="161" width="86" height="86" fill="none" stroke="#38bdf8" stroke-width="1" stroke-opacity="0.35" rx="14"/>
  <line x1="420" y1="120" x2="420" y2="146" stroke="#38bdf8" stroke-width="3" stroke-linecap="round"/>
  <circle cx="420" cy="112" r="6" fill="#38bdf8"/>
  <circle cx="420" cy="112" r="13" fill="none" stroke="#38bdf8" stroke-opacity="0.25" stroke-width="1.5"/>
  <line x1="392" y1="188" x2="448" y2="188" stroke="#bae6fd" stroke-width="4" stroke-linecap="round"/>
  <line x1="390" y1="208" x2="450" y2="208" stroke="#bae6fd" stroke-width="4" stroke-linecap="round"/>
  <line x1="396" y1="228" x2="444" y2="228" stroke="#bae6fd" stroke-width="4" stroke-linecap="round"/>
  <text x="420" y="284" text-anchor="middle" font-size="11" fill="#38bdf8" font-weight="700" letter-spacing="2">ACCESS POINT</text>

  <path d="M 478,178 C 540,150 584,132 660,132" fill="none" stroke="#f97316" stroke-width="10" stroke-linecap="round" stroke-opacity="0.8"/>
  <path d="M 478,208 C 552,208 586,208 660,208" fill="none" stroke="#38bdf8" stroke-width="16" stroke-linecap="round" stroke-opacity="0.8"/>
  <path d="M 478,238 C 540,266 584,284 660,284" fill="none" stroke="#34d399" stroke-width="22" stroke-linecap="round" stroke-opacity="0.8"/>

  <path d="M 478,178 C 540,150 584,132 660,132" fill="none" stroke="#fed7aa" stroke-width="2" stroke-linecap="round"/>
  <path d="M 478,208 C 552,208 586,208 660,208" fill="none" stroke="#bae6fd" stroke-width="3" stroke-linecap="round"/>
  <path d="M 478,238 C 540,266 584,284 660,284" fill="none" stroke="#a7f3d0" stroke-width="4" stroke-linecap="round"/>

  <rect x="610" y="114" width="115" height="36" fill="#19120c" stroke="#f97316" stroke-width="1.5" rx="18"/>
  <text x="667" y="129" text-anchor="middle" font-size="10" fill="#f97316" font-weight="700">2.4 GHz</text>
  <text x="667" y="141" text-anchor="middle" font-size="8" fill="#fed7aa">range · 20/40</text>

  <rect x="610" y="190" width="115" height="36" fill="#0c1623" stroke="#38bdf8" stroke-width="1.5" rx="18"/>
  <text x="667" y="205" text-anchor="middle" font-size="10" fill="#38bdf8" font-weight="700">5 GHz</text>
  <text x="667" y="217" text-anchor="middle" font-size="8" fill="#bae6fd">speed · 80/160</text>

  <rect x="610" y="266" width="115" height="36" fill="#0a1816" stroke="#34d399" stroke-width="1.5" rx="18"/>
  <text x="667" y="281" text-anchor="middle" font-size="10" fill="#34d399" font-weight="700">6 GHz</text>
  <text x="667" y="293" text-anchor="middle" font-size="8" fill="#a7f3d0">capacity · 320</text>

  <rect x="285" y="316" width="470" height="40" fill="#0b1320" stroke="#223040" stroke-width="1.5" rx="20"/>
  <text x="313" y="332" font-size="9" fill="#64748b" letter-spacing="1">SERIES THEMES</text>
  <rect x="313" y="339" width="88" height="8" fill="#f97316" rx="4"/>
  <rect x="415" y="339" width="92" height="8" fill="#38bdf8" rx="4"/>
  <rect x="521" y="339" width="106" height="8" fill="#f59e0b" rx="4"/>
  <rect x="641" y="339" width="86" height="8" fill="#34d399" rx="4"/>
  <text x="357" y="360" text-anchor="middle" font-size="8" fill="#fed7aa">security</text>
  <text x="461" y="360" text-anchor="middle" font-size="8" fill="#bae6fd">roaming</text>
  <text x="574" y="360" text-anchor="middle" font-size="8" fill="#fdba74">channels</text>
  <text x="684" y="360" text-anchor="middle" font-size="8" fill="#a7f3d0">WiFi 7</text>

  <!-- Bottom overlay -->
  <rect x="0" y="390" width="1200" height="240" fill="url(#textbg)"/>

  <rect x="200" y="418" width="185" height="30" fill="#0c1a2e" stroke="#f97316" stroke-width="1.5" rx="15"/>
  <text x="292" y="438" text-anchor="middle" font-size="11" fill="#f97316" font-weight="600" letter-spacing="1">WPA3 Security</text>
  <rect x="405" y="418" width="185" height="30" fill="#0c1a2e" stroke="#38bdf8" stroke-width="1.5" rx="15"/>
  <text x="497" y="438" text-anchor="middle" font-size="11" fill="#38bdf8" font-weight="600" letter-spacing="1">Roaming</text>
  <rect x="610" y="418" width="185" height="30" fill="#0c1a2e" stroke="#f59e0b" stroke-width="1.5" rx="15"/>
  <text x="702" y="438" text-anchor="middle" font-size="11" fill="#f59e0b" font-weight="600" letter-spacing="1">Channels</text>
  <rect x="815" y="418" width="185" height="30" fill="#052e16" stroke="#34d399" stroke-width="1.5" rx="15"/>
  <text x="907" y="438" text-anchor="middle" font-size="11" fill="#34d399" font-weight="600" letter-spacing="1">MLO</text>

  <text x="600" y="500" text-anchor="middle" font-size="13" fill="#38bdf8" letter-spacing="3" font-weight="600">WIRELESS NETWORKING</text>
  <text x="600" y="538" text-anchor="middle" font-size="34" font-weight="700" fill="#f1f5f9">WiFi Explained</text>
</svg>
