<?xml version="1.0" encoding="UTF-8"?>
<svg xmlns="http://www.w3.org/2000/svg" viewBox="0 0 1200 630" width="1200" height="630"
     font-family="system-ui,-apple-system,BlinkMacSystemFont,'Segoe UI',sans-serif">
  <defs>
    <linearGradient id="bg" x1="0" y1="0" x2="1" y2="1">
      <stop offset="0%" stop-color="#080c14"/>
      <stop offset="100%" stop-color="#0d1520"/>
    </linearGradient>
    <linearGradient id="textbg" x1="0" y1="0" x2="0" y2="1">
      <stop offset="0%" stop-color="#080c14" stop-opacity="0"/>
      <stop offset="60%" stop-color="#080c14" stop-opacity="0.93"/>
      <stop offset="100%" stop-color="#080c14" stop-opacity="1"/>
    </linearGradient>
    <linearGradient id="hex-fill" x1="0" y1="0" x2="0" y2="1">
      <stop offset="0%" stop-color="#1f0e04"/>
      <stop offset="100%" stop-color="#130800"/>
    </linearGradient>
    <radialGradient id="worker-glow" cx="50%" cy="34%" r="40%">
      <stop offset="0%" stop-color="#f97316" stop-opacity="0.13"/>
      <stop offset="100%" stop-color="#f97316" stop-opacity="0"/>
    </radialGradient>
    <marker id="arr-orange" markerWidth="8" markerHeight="6" refX="7" refY="3" orient="auto">
      <polygon points="0,0 8,3 0,6" fill="#f97316"/>
    </marker>
    <marker id="arr-slate" markerWidth="8" markerHeight="6" refX="7" refY="3" orient="auto">
      <polygon points="0,0 8,3 0,6" fill="#64748b"/>
    </marker>
  </defs>

  <rect width="1200" height="630" fill="url(#bg)"/>
  <rect width="1200" height="630" fill="url(#worker-glow)"/>

  <!-- Line grid -->
  <g stroke="#0d1a2a" stroke-width="1">
    <line x1="0"    y1="100" x2="1200" y2="100"/>
    <line x1="0"    y1="200" x2="1200" y2="200"/>
    <line x1="0"    y1="300" x2="1200" y2="300"/>
    <line x1="200"  y1="0"   x2="200"  y2="390"/>
    <line x1="400"  y1="0"   x2="400"  y2="390"/>
    <line x1="600"  y1="0"   x2="600"  y2="390"/>
    <line x1="800"  y1="0"   x2="800"  y2="390"/>
    <line x1="1000" y1="0"   x2="1000" y2="390"/>
  </g>

  <!-- Step 1: Zensical (cx=155, r=55) -->
  <circle cx="155" cy="215" r="55" fill="#060e1c" stroke="#38bdf8" stroke-width="2"/>
  <circle cx="155" cy="215" r="42" fill="#081220" stroke="#38bdf8" stroke-width="1" stroke-opacity="0.4" stroke-dasharray="4,3"/>
  <text x="155" y="209" text-anchor="middle" font-size="26" fill="#7dd3fc" font-weight="700">Z</text>
  <text x="155" y="226" text-anchor="middle" font-size="8"   fill="#7dd3fc" letter-spacing="2">ZENSICAL</text>

  <!-- Arrow: zensical → github -->
  <line x1="211" y1="215" x2="313" y2="215"
        stroke="#64748b" stroke-width="1.5" stroke-dasharray="5,4" marker-end="url(#arr-slate)"/>
  <text x="262" y="203" text-anchor="middle" font-size="10" fill="#94a3b8" letter-spacing="1">git push</text>

  <!-- Step 2: GitHub (cx=370, r=55) -->
  <circle cx="370" cy="215" r="55" fill="#060e1c" stroke="#64748b" stroke-width="2"/>
  <circle cx="370" cy="215" r="42" fill="#0a1020" stroke="#64748b" stroke-width="1" stroke-opacity="0.4" stroke-dasharray="4,3"/>
  <text x="370" y="209" text-anchor="middle" font-size="24" fill="#cbd5e1" font-weight="700">GH</text>
  <text x="370" y="226" text-anchor="middle" font-size="9"   fill="#94a3b8" letter-spacing="3">GITHUB</text>

  <!-- Arrow: github → cf workers -->
  <line x1="426" y1="215" x2="527" y2="215"
        stroke="#64748b" stroke-width="1.5" stroke-dasharray="5,4" marker-end="url(#arr-slate)"/>
  <text x="476" y="203" text-anchor="middle" font-size="10" fill="#94a3b8" letter-spacing="1">auto deploy</text>

  <!-- Central CF Worker hexagon — center (600, 215), r=82
       top(600,133) tr(671,174) br(671,256) bot(600,297) bl(529,256) tl(529,174) -->
  <circle cx="600" cy="215" r="128" fill="none" stroke="#f97316" stroke-width="1" stroke-opacity="0.10" stroke-dasharray="4,10"/>

  <polygon points="600,133 671,174 671,256 600,297 529,256 529,174"
           fill="url(#hex-fill)" stroke="#f97316" stroke-width="2.5"/>
  <polygon points="600,141 663,179 663,251 600,289 537,251 537,179"
           fill="none" stroke="#f97316" stroke-width="0.8" stroke-opacity="0.35"/>

  <text x="600" y="210" text-anchor="middle" font-size="14" fill="#fb923c" font-weight="700" letter-spacing="1">CF WORKER</text>
  <text x="600" y="228" text-anchor="middle" font-size="10" fill="#f97316" letter-spacing="2" opacity="0.8">workers.dev</text>

  <!-- Edge count badge -->
  <rect x="512" y="305" width="176" height="22" fill="#120800" stroke="#f97316" stroke-width="1" rx="11" stroke-opacity="0.45"/>
  <text x="600" y="320" text-anchor="middle" font-size="9" fill="#fb923c" letter-spacing="1">300+ edge locations</text>

  <!-- Arrows: worker → edge regions -->
  <line x1="671" y1="174" x2="950" y2="148" stroke="#f97316" stroke-width="1.5" marker-end="url(#arr-orange)"/>
  <line x1="671" y1="215" x2="950" y2="215" stroke="#f97316" stroke-width="1.5" marker-end="url(#arr-orange)"/>
  <line x1="671" y1="256" x2="950" y2="283" stroke="#f97316" stroke-width="1.5" marker-end="url(#arr-orange)"/>

  <!-- Americas (980, 148) -->
  <circle cx="980" cy="148" r="28" fill="#1a0c04" stroke="#f97316" stroke-width="2"/>
  <circle cx="980" cy="148" r="9"  fill="#f97316" fill-opacity="0.85"/>
  <text x="1016" y="143" font-size="11" fill="#f97316" font-weight="700">Americas</text>
  <text x="1016" y="157" font-size="9"  fill="#fed7aa">US · CA · SA</text>

  <!-- Europe (980, 215) -->
  <circle cx="980" cy="215" r="28" fill="#1a0c04" stroke="#f97316" stroke-width="2"/>
  <circle cx="980" cy="215" r="9"  fill="#f97316" fill-opacity="0.85"/>
  <text x="1016" y="210" font-size="11" fill="#f97316" font-weight="700">Europe</text>
  <text x="1016" y="224" font-size="9"  fill="#fed7aa">EU · UK · ME</text>

  <!-- Asia Pacific (980, 283) -->
  <circle cx="980" cy="283" r="28" fill="#1a0c04" stroke="#f97316" stroke-width="2"/>
  <circle cx="980" cy="283" r="9"  fill="#f97316" fill-opacity="0.85"/>
  <text x="1016" y="278" font-size="11" fill="#f97316" font-weight="700">Asia Pacific</text>
  <text x="1016" y="292" font-size="9"  fill="#fed7aa">AP · AU · IN</text>

  <rect x="0" y="390" width="1200" height="240" fill="url(#textbg)"/>

  <text x="600" y="500" text-anchor="middle" font-size="13" fill="#f97316" letter-spacing="3" font-weight="600">CLOUDFLARE WORKERS</text>
  <text x="600" y="538" text-anchor="middle" font-size="34" font-weight="700" fill="#f1f5f9">Deploying Zensical on Cloudflare Workers</text>
</svg>
