<?xml version="1.0" encoding="UTF-8"?>
<svg xmlns="http://www.w3.org/2000/svg" viewBox="0 0 700 260" width="700" height="260"
     font-family="system-ui,-apple-system,BlinkMacSystemFont,'Segoe UI',sans-serif">
  <rect width="700" height="260" fill="#f8fafc" rx="12"/>
  <text x="350" y="24" text-anchor="middle" font-size="13" font-weight="700" fill="#111827">SLAAC — Address Autoconfiguration Flow</text>

  <!-- Column headers -->
  <text x="130" y="44" text-anchor="middle" font-size="11" font-weight="700" fill="#374151">DEVICE</text>
  <text x="570" y="44" text-anchor="middle" font-size="11" font-weight="700" fill="#374151">ROUTER</text>

  <!-- Timeline lines -->
  <line x1="130" y1="50" x2="130" y2="240" stroke="#d1d5db" stroke-width="2"/>
  <line x1="570" y1="50" x2="570" y2="240" stroke="#d1d5db" stroke-width="2"/>

  <!-- Step 1: RS -->
  <circle cx="130" cy="75" r="5" fill="#3b82f6"/>
  <line x1="135" y1="75" x2="558" y2="75" stroke="#3b82f6" stroke-width="1.5" marker-end="url(#arr-blue)"/>
  <text x="350" y="68" text-anchor="middle" font-size="10" font-weight="600" fill="#1d4ed8">Router Solicitation (RS)</text>
  <text x="350" y="84" text-anchor="middle" font-size="9" fill="#64748b">ff02::2 — who is my router?</text>

  <!-- Step 2: RA -->
  <circle cx="570" cy="120" r="5" fill="#10b981"/>
  <line x1="565" y1="120" x2="142" y2="120" stroke="#10b981" stroke-width="1.5" marker-end="url(#arr-green)"/>
  <text x="350" y="113" text-anchor="middle" font-size="10" font-weight="600" fill="#065f46">Router Advertisement (RA)</text>
  <text x="350" y="129" text-anchor="middle" font-size="9" fill="#64748b">prefix: 2001:db8::/64 · gateway: fe80::1 · MTU</text>

  <!-- Step 3: Address construction -->
  <circle cx="130" cy="165" r="5" fill="#8b5cf6"/>
  <rect x="40" y="152" width="180" height="38" fill="#f5f3ff" stroke="#7c3aed" stroke-width="1" rx="5"/>
  <text x="130" y="168" text-anchor="middle" font-size="9" font-weight="600" fill="#5b21b6">construct address</text>
  <text x="130" y="182" text-anchor="middle" font-size="8" fill="#7c3aed" font-family="'Courier New',monospace">prefix + random IID</text>

  <!-- Step 4: DAD -->
  <circle cx="130" cy="215" r="5" fill="#f59e0b"/>
  <line x1="135" y1="215" x2="558" y2="215" stroke="#f59e0b" stroke-width="1.5" stroke-dasharray="5,3"/>
  <text x="350" y="208" text-anchor="middle" font-size="10" font-weight="600" fill="#92400e">DAD — Duplicate Address Detection</text>
  <text x="350" y="224" text-anchor="middle" font-size="9" fill="#64748b">NS to solicited-node multicast — confirm address is unique</text>

  <defs>
    <marker id="arr-blue" markerWidth="7" markerHeight="5" refX="6" refY="2.5" orient="auto">
      <polygon points="0,0 7,2.5 0,5" fill="#3b82f6"/>
    </marker>
    <marker id="arr-green" markerWidth="7" markerHeight="5" refX="6" refY="2.5" orient="auto">
      <polygon points="0,0 7,2.5 0,5" fill="#10b981"/>
    </marker>
  </defs>
</svg>
