<?xml version="1.0" encoding="UTF-8"?>
<svg xmlns="http://www.w3.org/2000/svg" viewBox="0 0 1200 630" width="1200" height="630"
     font-family="system-ui,-apple-system,BlinkMacSystemFont,'Segoe UI',sans-serif">
  <defs>
    <linearGradient id="bg" x1="0" y1="0" x2="1" y2="1">
      <stop offset="0%" stop-color="#080c14"/>
      <stop offset="100%" stop-color="#0d1520"/>
    </linearGradient>
    <linearGradient id="textbg" x1="0" y1="0" x2="0" y2="1">
      <stop offset="0%" stop-color="#080c14" stop-opacity="0"/>
      <stop offset="60%" stop-color="#080c14" stop-opacity="0.93"/>
      <stop offset="100%" stop-color="#080c14" stop-opacity="1"/>
    </linearGradient>
    <marker id="arr" markerWidth="8" markerHeight="6" refX="7" refY="3" orient="auto">
      <polygon points="0,0 8,3 0,6" fill="#dc2626"/>
    </marker>
  </defs>

  <!-- Background -->
  <rect width="1200" height="630" fill="url(#bg)"/>

  <!-- Grid -->
  <g stroke="#0d1a2a" stroke-width="1">
    <line x1="0" y1="100" x2="1200" y2="100"/>
    <line x1="0" y1="200" x2="1200" y2="200"/>
    <line x1="0" y1="300" x2="1200" y2="300"/>
    <line x1="0" y1="400" x2="1200" y2="400"/>
    <line x1="200" y1="0" x2="200" y2="500"/>
    <line x1="400" y1="0" x2="400" y2="500"/>
    <line x1="600" y1="0" x2="600" y2="500"/>
    <line x1="800" y1="0" x2="800" y2="500"/>
    <line x1="1000" y1="0" x2="1000" y2="500"/>
  </g>

  <!-- Control node terminal -->
  <rect x="60" y="135" width="290" height="220" fill="#0a1628" stroke="#334155" stroke-width="1.5" rx="8"/>
  <rect x="60" y="135" width="290" height="26" fill="#1e293b" rx="8"/>
  <rect x="60" y="149" width="290" height="12" fill="#1e293b"/>
  <circle cx="82" cy="148" r="5" fill="#ef4444" fill-opacity="0.7"/>
  <circle cx="97" cy="148" r="5" fill="#f59e0b" fill-opacity="0.7"/>
  <circle cx="112" cy="148" r="5" fill="#4ade80" fill-opacity="0.7"/>
  <text x="205" y="153" text-anchor="middle" font-size="9" fill="#64748b">ansible-control</text>

  <g font-family="'Courier New',monospace" font-size="9.5">
    <text x="76" y="180" fill="#4ade80">$ ansible all -m ping</text>
    <text x="76" y="196" fill="#475569">PLAY [all] ********************</text>
    <text x="76" y="215" fill="#94a3b8">host1 <tspan fill="#4ade80">| SUCCESS</tspan></text>
    <text x="76" y="230" fill="#64748b">  "ping": "pong"</text>
    <text x="76" y="249" fill="#94a3b8">host2 <tspan fill="#4ade80">| SUCCESS</tspan></text>
    <text x="76" y="264" fill="#64748b">  "ping": "pong"</text>
    <text x="76" y="283" fill="#94a3b8">host3 <tspan fill="#4ade80">| SUCCESS</tspan></text>
    <text x="76" y="298" fill="#64748b">  "ping": "pong"</text>
    <text x="76" y="326" fill="#475569">ok=3  changed=0  failed=0</text>
  </g>
  <text x="205" y="372" text-anchor="middle" font-size="11" fill="#64748b">Control Node</text>

  <!-- Diverging arrows from terminal right edge (352, 252) to three hosts -->
  <path d="M 352,252 C 530,252 680,175 838,175" fill="none" stroke="#dc2626" stroke-width="2" stroke-opacity="0.65" marker-end="url(#arr)"/>
  <path d="M 352,252 L 838,252"                fill="none" stroke="#dc2626" stroke-width="2" marker-end="url(#arr)"/>
  <path d="M 352,252 C 530,252 680,329 838,329" fill="none" stroke="#dc2626" stroke-width="2" stroke-opacity="0.65" marker-end="url(#arr)"/>

  <!-- SSH label -->
  <text x="600" y="238" text-anchor="middle" font-size="11" fill="#dc2626" font-weight="600" letter-spacing="1">SSH</text>

  <!-- Managed hosts -->
  <rect x="840" y="145" width="200" height="60" fill="#0d1e30" stroke="#dc2626" stroke-width="1.5" rx="6"/>
  <rect x="840" y="145" width="5" height="60" fill="#dc2626" rx="3"/>
  <text x="950" y="170" text-anchor="middle" font-size="12" font-weight="600" fill="#e2e8f0">host1</text>
  <text x="950" y="188" text-anchor="middle" font-size="9" fill="#64748b">192.168.1.10</text>

  <rect x="840" y="222" width="200" height="60" fill="#0d1e30" stroke="#dc2626" stroke-width="1.5" rx="6"/>
  <rect x="840" y="222" width="5" height="60" fill="#dc2626" rx="3"/>
  <text x="950" y="247" text-anchor="middle" font-size="12" font-weight="600" fill="#e2e8f0">host2</text>
  <text x="950" y="265" text-anchor="middle" font-size="9" fill="#64748b">192.168.1.11</text>

  <rect x="840" y="299" width="200" height="60" fill="#0d1e30" stroke="#dc2626" stroke-width="1.5" rx="6"/>
  <rect x="840" y="299" width="5" height="60" fill="#dc2626" rx="3"/>
  <text x="950" y="324" text-anchor="middle" font-size="12" font-weight="600" fill="#e2e8f0">host3</text>
  <text x="950" y="342" text-anchor="middle" font-size="9" fill="#64748b">192.168.1.12</text>

  <!-- Inventory badge -->
  <rect x="410" y="96" width="280" height="32" fill="#0c1a2e" stroke="#dc2626" stroke-width="1.5" rx="16"/>
  <text x="550" y="117" text-anchor="middle" font-size="12" fill="#dc2626" font-weight="600" letter-spacing="1">inventory.ini · SSH Keys</text>

  <!-- Bottom gradient -->
  <rect x="0" y="390" width="1200" height="240" fill="url(#textbg)"/>

  <!-- Series label -->
  <text x="600" y="500" text-anchor="middle" font-size="13" fill="#dc2626" letter-spacing="3" font-weight="600">Ansible Essentials</text>

  <!-- Title -->
  <text x="600" y="538" text-anchor="middle" font-size="34" font-weight="700" fill="#f1f5f9">Installation &amp; Configuration</text>
</svg>
