<?xml version="1.0" encoding="UTF-8"?>
<svg xmlns="http://www.w3.org/2000/svg" viewBox="0 0 1200 630" width="1200" height="630"
     font-family="system-ui,-apple-system,BlinkMacSystemFont,'Segoe UI',sans-serif">
  <defs>
    <linearGradient id="bg" x1="0" y1="0" x2="1" y2="1">
      <stop offset="0%" stop-color="#080c14"/>
      <stop offset="100%" stop-color="#0d1520"/>
    </linearGradient>
    <linearGradient id="textbg" x1="0" y1="0" x2="0" y2="1">
      <stop offset="0%" stop-color="#080c14" stop-opacity="0"/>
      <stop offset="60%" stop-color="#080c14" stop-opacity="0.93"/>
      <stop offset="100%" stop-color="#080c14" stop-opacity="1"/>
    </linearGradient>
    <linearGradient id="zone-green" x1="0" y1="0" x2="0" y2="1">
      <stop offset="0%" stop-color="#4ade80" stop-opacity="0.08"/>
      <stop offset="100%" stop-color="#4ade80" stop-opacity="0.03"/>
    </linearGradient>
    <linearGradient id="zone-yellow" x1="0" y1="0" x2="0" y2="1">
      <stop offset="0%" stop-color="#f59e0b" stop-opacity="0.10"/>
      <stop offset="100%" stop-color="#f59e0b" stop-opacity="0.03"/>
    </linearGradient>
    <linearGradient id="zone-red" x1="0" y1="0" x2="0" y2="1">
      <stop offset="0%" stop-color="#ef4444" stop-opacity="0.12"/>
      <stop offset="100%" stop-color="#ef4444" stop-opacity="0.03"/>
    </linearGradient>
    <radialGradient id="panel-glow" cx="68%" cy="40%" r="45%">
      <stop offset="0%" stop-color="#0ea5e9" stop-opacity="0.08"/>
      <stop offset="100%" stop-color="#0ea5e9" stop-opacity="0"/>
    </radialGradient>
    <marker id="arr" markerWidth="8" markerHeight="6" refX="7" refY="3" orient="auto">
      <polygon points="0,0 8,3 0,6" fill="#334155"/>
    </marker>
  </defs>

  <rect width="1200" height="630" fill="url(#bg)"/>
  <rect width="1200" height="630" fill="url(#panel-glow)"/>

  <g stroke="#0d1a2a" stroke-width="1">
    <line x1="0" y1="100" x2="1200" y2="100"/>
    <line x1="0" y1="200" x2="1200" y2="200"/>
    <line x1="0" y1="300" x2="1200" y2="300"/>

    <line x1="200" y1="0" x2="200" y2="370"/>
    <line x1="400" y1="0" x2="400" y2="370"/>
    <line x1="600" y1="0" x2="600" y2="370"/>
    <line x1="800" y1="0" x2="800" y2="370"/>
    <line x1="1000" y1="0" x2="1000" y2="370"/>
  </g>

  <!-- ===== LEFT: docker-compose config panel ===== -->
  <rect x="60" y="95" width="330" height="280" fill="#0a1628" stroke="#334155" stroke-width="1.5" rx="8"/>
  <!-- Title bar -->
  <rect x="60" y="95" width="330" height="24" fill="#1e293b" rx="8"/>
  <rect x="60" y="107" width="330" height="12" fill="#1e293b"/>
  <circle cx="82" cy="107" r="5" fill="#ef4444" fill-opacity="0.7"/>
  <circle cx="97" cy="107" r="5" fill="#f59e0b" fill-opacity="0.7"/>
  <circle cx="112" cy="107" r="5" fill="#4ade80" fill-opacity="0.7"/>
  <text x="225" y="111" text-anchor="middle" font-size="9" fill="#64748b">docker-compose.yml</text>

  <g font-family="'Courier New',monospace" font-size="9.5">
    <text x="76" y="138" fill="#7dd3fc">services:</text>
    <text x="76" y="155" fill="#a3e635">  smokeping:</text>
    <text x="76" y="180" fill="#94a3b8" font-size="8.5">    image: <tspan fill="#fb923c">linuxserver/smokeping:latest</tspan></text>
    <text x="76" y="205" fill="#94a3b8">    container_name: smokeping</text>
    <text x="76" y="222" fill="#94a3b8">    environment:</text>
    <text x="76" y="238" fill="#64748b">      - PUID=1000</text>
    <text x="76" y="254" fill="#64748b">      - PGID=1000</text>
    <text x="76" y="271" fill="#94a3b8">    volumes:</text>
    <text x="76" y="287" fill="#64748b">      - ./config:/config</text>
    <text x="76" y="303" fill="#64748b">      - ./data:/data</text>
    <text x="76" y="320" fill="#94a3b8">    ports:</text>
    <text x="76" y="336" fill="#64748b">      - "80:80"</text>
    <text x="76" y="352" fill="#94a3b8">    restart: <tspan fill="#fb923c">unless-stopped</tspan></text>
  </g>

  <!-- Produces arrow -->
  <line x1="392" y1="235" x2="416" y2="235" stroke="#334155" stroke-width="1.5" marker-end="url(#arr)"/>

  <!-- ===== RIGHT: Smokeping latency graph ===== -->
  <!-- Chart area: x=420 to x=1140, y=95 to y=370 (720×275) -->
  <rect x="420" y="95" width="720" height="275" fill="#050a12" rx="4"/>

  <!-- Zone bands -->
  <rect x="420" y="318" width="720" height="52" fill="url(#zone-green)"/>
  <rect x="420" y="235" width="720" height="83" fill="url(#zone-yellow)"/>
  <rect x="420" y="95"  width="720" height="140" fill="url(#zone-red)"/>

  <!-- Grid lines -->
  <g stroke="#0d1a2a" stroke-width="1">
    <line x1="420" y1="318" x2="1140" y2="318"/>
    <line x1="420" y1="235" x2="1140" y2="235"/>
    <line x1="420" y1="152" x2="1140" y2="152"/>
    <line x1="564" y1="95" x2="564" y2="370"/>
    <line x1="677" y1="95" x2="677" y2="370"/>
    <line x1="791" y1="95" x2="791" y2="370"/>
    <line x1="904" y1="95" x2="904" y2="370"/>
    <line x1="1018" y1="95" x2="1018" y2="370"/>
  </g>

  <!-- Y-axis labels -->
  <text x="416" y="322" text-anchor="end" font-size="8" fill="#4ade80">30ms</text>
  <text x="416" y="239" text-anchor="end" font-size="8" fill="#f59e0b">80ms</text>
  <text x="416" y="156" text-anchor="end" font-size="8" fill="#ef4444">130ms</text>
  <text x="416" y="374" text-anchor="end" font-size="8" fill="#475569">0</text>

  <!-- X-axis time labels -->
  <text x="420"  y="375" font-size="8" fill="#475569" text-anchor="middle">18:00</text>
  <text x="564"  y="375" font-size="8" fill="#475569" text-anchor="middle">19:00</text>
  <text x="677"  y="375" font-size="8" fill="#475569" text-anchor="middle">20:00</text>
  <text x="791"  y="375" font-size="8" fill="#475569" text-anchor="middle">21:00</text>
  <text x="904"  y="375" font-size="8" fill="#475569" text-anchor="middle">22:00</text>
  <text x="1018" y="375" font-size="8" fill="#475569" text-anchor="middle">23:00</text>
  <text x="1130" y="375" font-size="8" fill="#475569" text-anchor="middle">00:00</text>

  <!-- Smoke polygon -->
  <polygon
    points="
      450,333  508,331  564,334  617,330  643,328
      677,316  707,295  739,268  764,238  791,198
      816,172  848,158  874,152  904,162  925,185
      957,212  989,243  1018,280  1053,318  1092,330  1130,332
      1130,352  1092,348  1053,344  1018,340  989,338
      957,342  925,344  904,344  874,340  848,334
      816,330  791,318  764,310  739,304  707,320
      677,338  643,352  617,356  564,354  508,350  450,351
    "
    fill="#0ea5e9" fill-opacity="0.18"/>

  <!-- Median line -->
  <polyline
    points="450,342  508,340  564,342  617,338  643,336
            677,327  707,308  739,283  764,270  791,255
            816,212  848,188  874,172  904,178  925,198
            957,228  989,262  1018,310  1053,331  1092,339  1130,341"
    fill="none" stroke="#0ea5e9" stroke-width="2.5" stroke-linejoin="round" stroke-linecap="round"/>

  <!-- Packet loss markers -->
  <circle cx="830" cy="175" r="4" fill="#ef4444"/>
  <circle cx="858" cy="162" r="4" fill="#ef4444"/>
  <circle cx="882" cy="152" r="4" fill="#ef4444"/>

  <!-- Zone labels -->
  <text x="1128" y="348" text-anchor="end" font-size="8" fill="#4ade80" font-weight="600">normal</text>
  <text x="1128" y="274" text-anchor="end" font-size="8" fill="#f59e0b" font-weight="600">elevated</text>
  <text x="1128" y="168" text-anchor="end" font-size="8" fill="#ef4444" font-weight="600">congested</text>

  <!-- Callout: evening congestion -->
  <line x1="874" y1="128" x2="874" y2="148" stroke="#ef4444" stroke-width="1" stroke-dasharray="3,2"/>
  <text x="874" y="123" text-anchor="middle" font-size="8" fill="#ef4444">evening congestion</text>

  <!-- Callout: packet loss -->
  <circle cx="843" cy="107" r="3" fill="#ef4444"/>
  <text x="850" y="110" font-size="8" fill="#ef4444">packet loss</text>

  <!-- Graph title -->
  <text x="432" y="110" font-size="8" fill="#475569">Target: ISP Gateway · fping · Last 6h</text>

  <rect x="0" y="390" width="1200" height="240" fill="url(#textbg)"/>

  <text x="600" y="500" text-anchor="middle" font-size="13" fill="#0ea5e9" letter-spacing="3" font-weight="600">SMOKEPING ESSENTIALS</text>
  <text x="600" y="538" text-anchor="middle" font-size="34" font-weight="700" fill="#f1f5f9">Setup</text>
</svg>
