<?xml version="1.0" encoding="UTF-8"?>
<svg xmlns="http://www.w3.org/2000/svg" viewBox="0 0 1200 630" width="1200" height="630"
     font-family="system-ui,-apple-system,BlinkMacSystemFont,'Segoe UI',sans-serif">
  <defs>
    <linearGradient id="bg" x1="0" y1="0" x2="1" y2="1">
      <stop offset="0%" stop-color="#0a0800"/>
      <stop offset="100%" stop-color="#190f00"/>
    </linearGradient>
    <linearGradient id="band24" x1="0" y1="0" x2="0" y2="1">
      <stop offset="0%" stop-color="#f97316" stop-opacity="0.9"/>
      <stop offset="100%" stop-color="#7c2d12" stop-opacity="0.3"/>
    </linearGradient>
    <linearGradient id="band5" x1="0" y1="0" x2="0" y2="1">
      <stop offset="0%" stop-color="#38bdf8" stop-opacity="0.9"/>
      <stop offset="100%" stop-color="#075985" stop-opacity="0.3"/>
    </linearGradient>
    <linearGradient id="band6" x1="0" y1="0" x2="0" y2="1">
      <stop offset="0%" stop-color="#34d399" stop-opacity="0.9"/>
      <stop offset="100%" stop-color="#064e3b" stop-opacity="0.3"/>
    </linearGradient>
    <linearGradient id="textbg" x1="0" y1="0" x2="0" y2="1">
      <stop offset="0%" stop-color="#0a0800" stop-opacity="0"/>
      <stop offset="60%" stop-color="#0a0800" stop-opacity="0.93"/>
      <stop offset="100%" stop-color="#0a0800" stop-opacity="1"/>
    </linearGradient>
  </defs>

  <!-- Background -->
  <rect width="1200" height="630" fill="url(#bg)"/>

  <!-- Subtle grid -->
  <g stroke="#1a1000" stroke-width="1">
    <line x1="0" y1="80" x2="1200" y2="80"/>
    <line x1="0" y1="200" x2="1200" y2="200"/>
    <line x1="0" y1="320" x2="1200" y2="320"/>
    <line x1="0" y1="440" x2="1200" y2="440"/>
  </g>

  <!-- Band labels on left -->
  <text x="70" y="148" text-anchor="middle" font-size="15" font-weight="700" fill="#fb923c" letter-spacing="1">2.4 GHz</text>
  <text x="70" y="268" text-anchor="middle" font-size="15" font-weight="700" fill="#38bdf8" letter-spacing="1">5 GHz</text>
  <text x="70" y="388" text-anchor="middle" font-size="15" font-weight="700" fill="#34d399" letter-spacing="1">6 GHz</text>

  <!-- === 2.4 GHz band — 3 non-overlapping channels, narrow === -->
  <!-- Band background -->
  <rect x="120" y="90" width="200" height="110" fill="#7c2d12" fill-opacity="0.15" rx="6"/>
  <!-- Channel 1 -->
  <rect x="130" y="100" width="48" height="90" fill="url(#band24)" rx="4"/>
  <text x="154" y="152" text-anchor="middle" font-size="11" fill="#fed7aa" font-weight="600">ch 1</text>
  <!-- Channel 6 -->
  <rect x="188" y="108" width="48" height="82" fill="url(#band24)" rx="4"/>
  <text x="212" y="156" text-anchor="middle" font-size="11" fill="#fed7aa" font-weight="600">ch 6</text>
  <!-- Channel 11 -->
  <rect x="246" y="104" width="48" height="86" fill="url(#band24)" rx="4"/>
  <text x="270" y="154" text-anchor="middle" font-size="11" fill="#fed7aa" font-weight="600">ch 11</text>
  <!-- Label: only 3 usable -->
  <text x="200" y="218" text-anchor="middle" font-size="11" fill="#78350f" letter-spacing="1">3 NON-OVERLAPPING · 20 MHz</text>

  <!-- === 5 GHz band — more channels, medium width === -->
  <rect x="120" y="210" width="680" height="110" fill="#075985" fill-opacity="0.12" rx="6"/>
  <!-- Many channels shown (simplified as groups) -->
  <!-- UNII-1 (36-48): 4 channels, no DFS -->
  <g fill="url(#band5)">
    <rect x="130" y="220" width="36" height="90" rx="3"/>
    <rect x="170" y="228" width="36" height="82" rx="3"/>
    <rect x="210" y="222" width="36" height="88" rx="3"/>
    <rect x="250" y="232" width="36" height="78" rx="3"/>
  </g>
  <text x="220" y="326" text-anchor="middle" font-size="10" fill="#0369a1" letter-spacing="1">UNII-1 (no DFS)</text>

  <!-- UNII-2 (52-144): DFS required, greyed slightly -->
  <g fill="url(#band5)" opacity="0.5">
    <rect x="310" y="226" width="28" height="84" rx="3"/>
    <rect x="342" y="222" width="28" height="88" rx="3"/>
    <rect x="374" y="234" width="28" height="76" rx="3"/>
    <rect x="406" y="228" width="28" height="82" rx="3"/>
    <rect x="438" y="220" width="28" height="90" rx="3"/>
    <rect x="470" y="230" width="28" height="80" rx="3"/>
    <rect x="502" y="224" width="28" height="86" rx="3"/>
    <rect x="534" y="232" width="28" height="78" rx="3"/>
  </g>
  <text x="430" y="326" text-anchor="middle" font-size="10" fill="#0369a1" letter-spacing="1">UNII-2 (DFS)</text>

  <!-- UNII-3 (149-177): no DFS -->
  <g fill="url(#band5)">
    <rect x="600" y="222" width="34" height="88" rx="3"/>
    <rect x="638" y="228" width="34" height="82" rx="3"/>
    <rect x="676" y="218" width="34" height="92" rx="3"/>
    <rect x="714" y="226" width="34" height="84" rx="3"/>
  </g>
  <text x="660" y="326" text-anchor="middle" font-size="10" fill="#0369a1" letter-spacing="1">UNII-3 (no DFS)</text>

  <!-- Label: ~25 usable -->
  <text x="420" y="338" text-anchor="middle" font-size="11" fill="#0c4a6e" letter-spacing="1">~25 NON-OVERLAPPING · 20–160 MHz</text>

  <!-- === 6 GHz band — wide, many channels === -->
  <rect x="120" y="330" width="1010" height="110" fill="#064e3b" fill-opacity="0.12" rx="6"/>
  <!-- Many channels (59 total — show as dense bars) -->
  <g fill="url(#band6)">
    <!-- 30 bars, each ~32px wide, 2px gap -->
    <rect x="130" y="340" width="30" height="92" rx="2"/>
    <rect x="163" y="348" width="30" height="84" rx="2"/>
    <rect x="196" y="340" width="30" height="92" rx="2"/>
    <rect x="229" y="352" width="30" height="80" rx="2"/>
    <rect x="262" y="344" width="30" height="88" rx="2"/>
    <rect x="295" y="338" width="30" height="94" rx="2"/>
    <rect x="328" y="350" width="30" height="82" rx="2"/>
    <rect x="361" y="342" width="30" height="90" rx="2"/>
    <rect x="394" y="346" width="30" height="86" rx="2"/>
    <rect x="427" y="336" width="30" height="96" rx="2"/>
    <rect x="460" y="350" width="30" height="82" rx="2"/>
    <rect x="493" y="342" width="30" height="90" rx="2"/>
    <rect x="526" y="348" width="30" height="84" rx="2"/>
    <rect x="559" y="340" width="30" height="92" rx="2"/>
    <rect x="592" y="344" width="30" height="88" rx="2"/>
    <rect x="625" y="338" width="30" height="94" rx="2"/>
    <rect x="658" y="352" width="30" height="80" rx="2"/>
    <rect x="691" y="342" width="30" height="90" rx="2"/>
    <rect x="724" y="346" width="30" height="86" rx="2"/>
    <rect x="757" y="336" width="30" height="96" rx="2"/>
    <rect x="790" y="350" width="30" height="82" rx="2"/>
    <rect x="823" y="340" width="30" height="92" rx="2"/>
    <rect x="856" y="348" width="30" height="84" rx="2"/>
    <rect x="889" y="342" width="30" height="90" rx="2"/>
    <rect x="922" y="338" width="30" height="94" rx="2"/>
    <rect x="955" y="350" width="30" height="82" rx="2"/>
    <rect x="988" y="344" width="30" height="88" rx="2"/>
    <rect x="1021" y="338" width="30" height="94" rx="2"/>
    <rect x="1054" y="346" width="30" height="86" rx="2"/>
    <rect x="1087" y="340" width="30" height="92" rx="2"/>
  </g>
  <!-- Top glow caps on 6GHz bars -->
  <g fill="#6ee7b7">
    <rect x="130" y="338" width="30" height="4" rx="2"/>
    <rect x="295" y="336" width="30" height="4" rx="2"/>
    <rect x="427" y="334" width="30" height="4" rx="2"/>
    <rect x="625" y="336" width="30" height="4" rx="2"/>
    <rect x="757" y="334" width="30" height="4" rx="2"/>
    <rect x="1021" y="336" width="30" height="4" rx="2"/>
  </g>
  <text x="640" y="458" text-anchor="middle" font-size="11" fill="#065f46" letter-spacing="1">59 NON-OVERLAPPING · UP TO 320 MHz · NO DFS</text>

  <!-- Bottom gradient overlay -->
  <rect x="0" y="390" width="1200" height="240" fill="url(#textbg)"/>

  <!-- Series label -->
  <text x="600" y="572" text-anchor="middle" font-size="13" fill="#fb923c" letter-spacing="3" font-weight="600">WiFi Explained</text>

  <!-- Title -->
  <text x="600" y="610" text-anchor="middle" font-size="36" font-weight="700" fill="#fef3c7">Channels, Transmit Power, and Width</text>
</svg>
