<?xml version="1.0" encoding="UTF-8"?>
<svg xmlns="http://www.w3.org/2000/svg" viewBox="0 0 1200 630" width="1200" height="630"
     font-family="system-ui,-apple-system,BlinkMacSystemFont,'Segoe UI',sans-serif">
  <defs>
    <linearGradient id="bg" x1="0" y1="0" x2="1" y2="1">
      <stop offset="0%" stop-color="#0a0800"/>
      <stop offset="100%" stop-color="#190f00"/>
    </linearGradient>
    <linearGradient id="band24" x1="0" y1="0" x2="0" y2="1">
      <stop offset="0%" stop-color="#f97316" stop-opacity="0.9"/>
      <stop offset="100%" stop-color="#7c2d12" stop-opacity="0.3"/>
    </linearGradient>
    <linearGradient id="band5" x1="0" y1="0" x2="0" y2="1">
      <stop offset="0%" stop-color="#38bdf8" stop-opacity="0.9"/>
      <stop offset="100%" stop-color="#075985" stop-opacity="0.3"/>
    </linearGradient>
    <linearGradient id="band6" x1="0" y1="0" x2="0" y2="1">
      <stop offset="0%" stop-color="#34d399" stop-opacity="0.9"/>
      <stop offset="100%" stop-color="#064e3b" stop-opacity="0.3"/>
    </linearGradient>
    <linearGradient id="textbg" x1="0" y1="0" x2="0" y2="1">
      <stop offset="0%" stop-color="#0a0800" stop-opacity="0"/>
      <stop offset="60%" stop-color="#0a0800" stop-opacity="0.93"/>
      <stop offset="100%" stop-color="#0a0800" stop-opacity="1"/>
    </linearGradient>
  </defs>

  <!-- Background -->
  <rect width="1200" height="630" fill="url(#bg)"/>

  <!-- Subtle grid -->
  <g stroke="#1a1000" stroke-width="1">
    <line x1="0" y1="80" x2="1200" y2="80"/>
    <line x1="0" y1="185" x2="1200" y2="185"/>
    <line x1="0" y1="290" x2="1200" y2="290"/>
    <line x1="0" y1="395" x2="1200" y2="395"/>
  </g>

  <!-- Band labels on left -->
  <text x="70" y="138" text-anchor="middle" font-size="15" font-weight="700" fill="#fb923c" letter-spacing="1">2.4 GHz</text>
  <text x="70" y="243" text-anchor="middle" font-size="15" font-weight="700" fill="#38bdf8" letter-spacing="1">5 GHz</text>
  <text x="70" y="348" text-anchor="middle" font-size="15" font-weight="700" fill="#34d399" letter-spacing="1">6 GHz</text>

  <!-- === 2.4 GHz band — 3 non-overlapping channels, narrow === -->
  <rect x="120" y="82" width="200" height="96" fill="#7c2d12" fill-opacity="0.15" rx="6"/>
  <!-- Channel 1 -->
  <rect x="130" y="90" width="48" height="78" fill="url(#band24)" rx="4"/>
  <text x="154" y="137" text-anchor="middle" font-size="11" fill="#fed7aa" font-weight="600">ch 1</text>
  <!-- Channel 6 -->
  <rect x="188" y="96" width="48" height="72" fill="url(#band24)" rx="4"/>
  <text x="212" y="139" text-anchor="middle" font-size="11" fill="#fed7aa" font-weight="600">ch 6</text>
  <!-- Channel 11 -->
  <rect x="246" y="92" width="48" height="76" fill="url(#band24)" rx="4"/>
  <text x="270" y="137" text-anchor="middle" font-size="11" fill="#fed7aa" font-weight="600">ch 11</text>
  <!-- Stat label -->
  <text x="200" y="193" text-anchor="middle" font-size="11" fill="#78350f" letter-spacing="1">3 NON-OVERLAPPING · 20 MHz</text>

  <!-- === 5 GHz band — more channels, medium width === -->
  <rect x="120" y="197" width="680" height="96" fill="#075985" fill-opacity="0.12" rx="6"/>
  <!-- UNII-1 (36-48): 4 channels, no DFS -->
  <g fill="url(#band5)">
    <rect x="130" y="206" width="36" height="78" rx="3"/>
    <rect x="170" y="212" width="36" height="72" rx="3"/>
    <rect x="210" y="207" width="36" height="77" rx="3"/>
    <rect x="250" y="215" width="36" height="69" rx="3"/>
  </g>
  <text x="220" y="308" text-anchor="middle" font-size="10" fill="#0369a1" letter-spacing="1">UNII-1 (no DFS)</text>

  <!-- UNII-2 (52-144): DFS required, greyed slightly -->
  <g fill="url(#band5)" opacity="0.5">
    <rect x="310" y="210" width="28" height="74" rx="3"/>
    <rect x="342" y="207" width="28" height="77" rx="3"/>
    <rect x="374" y="216" width="28" height="68" rx="3"/>
    <rect x="406" y="211" width="28" height="73" rx="3"/>
    <rect x="438" y="205" width="28" height="79" rx="3"/>
    <rect x="470" y="213" width="28" height="71" rx="3"/>
    <rect x="502" y="208" width="28" height="76" rx="3"/>
    <rect x="534" y="214" width="28" height="70" rx="3"/>
  </g>
  <text x="430" y="308" text-anchor="middle" font-size="10" fill="#0369a1" letter-spacing="1">UNII-2 (DFS)</text>

  <!-- UNII-3 (149-177): no DFS -->
  <g fill="url(#band5)">
    <rect x="600" y="207" width="34" height="77" rx="3"/>
    <rect x="638" y="212" width="34" height="72" rx="3"/>
    <rect x="676" y="204" width="34" height="80" rx="3"/>
    <rect x="714" y="210" width="34" height="74" rx="3"/>
  </g>
  <text x="660" y="308" text-anchor="middle" font-size="10" fill="#0369a1" letter-spacing="1">UNII-3 (no DFS)</text>

  <!-- Stat label -->
  <text x="420" y="320" text-anchor="middle" font-size="11" fill="#0c4a6e" letter-spacing="1">~25 NON-OVERLAPPING · 20–160 MHz</text>

  <!-- === 6 GHz band — wide, many channels === -->
  <rect x="120" y="302" width="1010" height="96" fill="#064e3b" fill-opacity="0.12" rx="6"/>
  <!-- Many channels (59 total — dense bars) -->
  <g fill="url(#band6)">
    <rect x="130" y="310" width="30" height="80" rx="2"/>
    <rect x="163" y="316" width="30" height="74" rx="2"/>
    <rect x="196" y="310" width="30" height="80" rx="2"/>
    <rect x="229" y="320" width="30" height="70" rx="2"/>
    <rect x="262" y="313" width="30" height="77" rx="2"/>
    <rect x="295" y="308" width="30" height="82" rx="2"/>
    <rect x="328" y="318" width="30" height="72" rx="2"/>
    <rect x="361" y="311" width="30" height="79" rx="2"/>
    <rect x="394" y="315" width="30" height="75" rx="2"/>
    <rect x="427" y="306" width="30" height="84" rx="2"/>
    <rect x="460" y="318" width="30" height="72" rx="2"/>
    <rect x="493" y="311" width="30" height="79" rx="2"/>
    <rect x="526" y="316" width="30" height="74" rx="2"/>
    <rect x="559" y="310" width="30" height="80" rx="2"/>
    <rect x="592" y="313" width="30" height="77" rx="2"/>
    <rect x="625" y="308" width="30" height="82" rx="2"/>
    <rect x="658" y="320" width="30" height="70" rx="2"/>
    <rect x="691" y="311" width="30" height="79" rx="2"/>
    <rect x="724" y="315" width="30" height="75" rx="2"/>
    <rect x="757" y="306" width="30" height="84" rx="2"/>
    <rect x="790" y="318" width="30" height="72" rx="2"/>
    <rect x="823" y="310" width="30" height="80" rx="2"/>
    <rect x="856" y="316" width="30" height="74" rx="2"/>
    <rect x="889" y="311" width="30" height="79" rx="2"/>
    <rect x="922" y="308" width="30" height="82" rx="2"/>
    <rect x="955" y="318" width="30" height="72" rx="2"/>
    <rect x="988" y="313" width="30" height="77" rx="2"/>
    <rect x="1021" y="308" width="30" height="82" rx="2"/>
    <rect x="1054" y="315" width="30" height="75" rx="2"/>
    <rect x="1087" y="310" width="30" height="80" rx="2"/>
  </g>
  <!-- Top glow caps on 6GHz bars -->
  <g fill="#6ee7b7">
    <rect x="130" y="308" width="30" height="4" rx="2"/>
    <rect x="295" y="306" width="30" height="4" rx="2"/>
    <rect x="427" y="304" width="30" height="4" rx="2"/>
    <rect x="625" y="306" width="30" height="4" rx="2"/>
    <rect x="757" y="304" width="30" height="4" rx="2"/>
    <rect x="1021" y="306" width="30" height="4" rx="2"/>
  </g>
  <!-- Stat label — now sits above the textbg gradient -->
  <text x="640" y="414" text-anchor="middle" font-size="11" fill="#065f46" letter-spacing="1">59 NON-OVERLAPPING · UP TO 320 MHz · NO DFS</text>

  <!-- Bottom gradient overlay -->
  <rect x="0" y="390" width="1200" height="240" fill="url(#textbg)"/>

  <!-- Series label -->
  <text x="600" y="500" text-anchor="middle" font-size="13" fill="#38bdf8" letter-spacing="3" font-weight="600">WiFi Explained</text>

  <!-- Title -->
  <text x="600" y="538" text-anchor="middle" font-size="34" font-weight="700" fill="#f1f5f9">Channels and Channel Width</text>
</svg>
