<?xml version="1.0" encoding="UTF-8"?>
<svg xmlns="http://www.w3.org/2000/svg" viewBox="0 0 700 220" width="700" height="220" font-family="system-ui,-apple-system,BlinkMacSystemFont,'Segoe UI',sans-serif">
  <defs>
    <linearGradient id="bg" x1="0" y1="0" x2="1" y2="1">
      <stop offset="0%" stop-color="#080c14"/>
      <stop offset="100%" stop-color="#0d1520"/>
    </linearGradient>
    <linearGradient id="bar" x1="0" y1="0" x2="0" y2="1">
      <stop offset="0%" stop-color="#38bdf8"/>
      <stop offset="100%" stop-color="#0c4a6e" stop-opacity="0.4"/>
    </linearGradient>
  </defs>

  <!-- Background -->
  <rect width="700" height="220" fill="url(#bg)" rx="8"/>

  <!-- Grid line -->
  <line x1="52" y1="108" x2="664" y2="108" stroke="#0d1a2a" stroke-width="1"/>

  <!-- Header label -->
  <text x="350" y="22" text-anchor="middle" font-size="11" font-weight="600" fill="#94a3b8" letter-spacing="1">OFDM — ONE 20 MHz CHANNEL, MANY SUBCARRIERS</text>

  <!-- Y axis label -->
  <text x="24" y="130" text-anchor="middle" font-size="10" fill="#94a3b8" transform="rotate(-90,24,130)">signal</text>

  <!-- Axis lines -->
  <line x1="52" y1="50" x2="52" y2="158" stroke="#1e3a5f" stroke-width="1.5"/>
  <line x1="52" y1="158" x2="664" y2="158" stroke="#1e3a5f" stroke-width="1.5"/>

  <!-- X axis label -->
  <text x="358" y="178" text-anchor="middle" font-size="10" fill="#94a3b8">frequency    20 MHz channel</text>

  <!-- Subcarriers — 52 bars, sky-blue gradient -->
  <rect x="58"  y="78" width="10" height="80" fill="url(#bar)" stroke="#38bdf8" stroke-width="0.5" rx="1"/>
  <rect x="70"  y="62" width="10" height="96" fill="url(#bar)" stroke="#38bdf8" stroke-width="0.5" rx="1"/>
  <rect x="82"  y="72" width="10" height="86" fill="url(#bar)" stroke="#38bdf8" stroke-width="0.5" rx="1"/>
  <rect x="94"  y="58" width="10" height="100" fill="url(#bar)" stroke="#38bdf8" stroke-width="0.5" rx="1"/>
  <rect x="106" y="68" width="10" height="90" fill="url(#bar)" stroke="#38bdf8" stroke-width="0.5" rx="1"/>
  <rect x="118" y="55" width="10" height="103" fill="url(#bar)" stroke="#38bdf8" stroke-width="0.5" rx="1"/>
  <rect x="130" y="65" width="10" height="93" fill="url(#bar)" stroke="#38bdf8" stroke-width="0.5" rx="1"/>
  <rect x="142" y="74" width="10" height="84" fill="url(#bar)" stroke="#38bdf8" stroke-width="0.5" rx="1"/>
  <rect x="154" y="60" width="10" height="98" fill="url(#bar)" stroke="#38bdf8" stroke-width="0.5" rx="1"/>
  <rect x="166" y="70" width="10" height="88" fill="url(#bar)" stroke="#38bdf8" stroke-width="0.5" rx="1"/>
  <rect x="178" y="56" width="10" height="102" fill="url(#bar)" stroke="#38bdf8" stroke-width="0.5" rx="1"/>
  <rect x="190" y="66" width="10" height="92" fill="url(#bar)" stroke="#38bdf8" stroke-width="0.5" rx="1"/>
  <rect x="202" y="76" width="10" height="82" fill="url(#bar)" stroke="#38bdf8" stroke-width="0.5" rx="1"/>
  <rect x="214" y="62" width="10" height="96" fill="url(#bar)" stroke="#38bdf8" stroke-width="0.5" rx="1"/>
  <rect x="226" y="72" width="10" height="86" fill="url(#bar)" stroke="#38bdf8" stroke-width="0.5" rx="1"/>
  <rect x="238" y="58" width="10" height="100" fill="url(#bar)" stroke="#38bdf8" stroke-width="0.5" rx="1"/>
  <rect x="250" y="68" width="10" height="90" fill="url(#bar)" stroke="#38bdf8" stroke-width="0.5" rx="1"/>
  <rect x="262" y="54" width="10" height="104" fill="url(#bar)" stroke="#38bdf8" stroke-width="0.5" rx="1"/>
  <rect x="274" y="64" width="10" height="94" fill="url(#bar)" stroke="#38bdf8" stroke-width="0.5" rx="1"/>
  <rect x="286" y="74" width="10" height="84" fill="url(#bar)" stroke="#38bdf8" stroke-width="0.5" rx="1"/>
  <rect x="298" y="60" width="10" height="98" fill="url(#bar)" stroke="#38bdf8" stroke-width="0.5" rx="1"/>
  <rect x="310" y="70" width="10" height="88" fill="url(#bar)" stroke="#38bdf8" stroke-width="0.5" rx="1"/>
  <rect x="322" y="56" width="10" height="102" fill="url(#bar)" stroke="#38bdf8" stroke-width="0.5" rx="1"/>
  <rect x="334" y="66" width="10" height="92" fill="url(#bar)" stroke="#38bdf8" stroke-width="0.5" rx="1"/>
  <rect x="346" y="76" width="10" height="82" fill="url(#bar)" stroke="#38bdf8" stroke-width="0.5" rx="1"/>
  <rect x="358" y="62" width="10" height="96" fill="url(#bar)" stroke="#38bdf8" stroke-width="0.5" rx="1"/>
  <rect x="370" y="72" width="10" height="86" fill="url(#bar)" stroke="#38bdf8" stroke-width="0.5" rx="1"/>
  <rect x="382" y="58" width="10" height="100" fill="url(#bar)" stroke="#38bdf8" stroke-width="0.5" rx="1"/>
  <rect x="394" y="68" width="10" height="90" fill="url(#bar)" stroke="#38bdf8" stroke-width="0.5" rx="1"/>
  <rect x="406" y="54" width="10" height="104" fill="url(#bar)" stroke="#38bdf8" stroke-width="0.5" rx="1"/>
  <rect x="418" y="64" width="10" height="94" fill="url(#bar)" stroke="#38bdf8" stroke-width="0.5" rx="1"/>
  <rect x="430" y="74" width="10" height="84" fill="url(#bar)" stroke="#38bdf8" stroke-width="0.5" rx="1"/>
  <rect x="442" y="60" width="10" height="98" fill="url(#bar)" stroke="#38bdf8" stroke-width="0.5" rx="1"/>
  <rect x="454" y="70" width="10" height="88" fill="url(#bar)" stroke="#38bdf8" stroke-width="0.5" rx="1"/>
  <rect x="466" y="56" width="10" height="102" fill="url(#bar)" stroke="#38bdf8" stroke-width="0.5" rx="1"/>
  <rect x="478" y="66" width="10" height="92" fill="url(#bar)" stroke="#38bdf8" stroke-width="0.5" rx="1"/>
  <rect x="490" y="76" width="10" height="82" fill="url(#bar)" stroke="#38bdf8" stroke-width="0.5" rx="1"/>
  <rect x="502" y="62" width="10" height="96" fill="url(#bar)" stroke="#38bdf8" stroke-width="0.5" rx="1"/>
  <rect x="514" y="72" width="10" height="86" fill="url(#bar)" stroke="#38bdf8" stroke-width="0.5" rx="1"/>
  <rect x="526" y="58" width="10" height="100" fill="url(#bar)" stroke="#38bdf8" stroke-width="0.5" rx="1"/>
  <rect x="538" y="68" width="10" height="90" fill="url(#bar)" stroke="#38bdf8" stroke-width="0.5" rx="1"/>
  <rect x="550" y="55" width="10" height="103" fill="url(#bar)" stroke="#38bdf8" stroke-width="0.5" rx="1"/>
  <rect x="562" y="65" width="10" height="93" fill="url(#bar)" stroke="#38bdf8" stroke-width="0.5" rx="1"/>
  <rect x="574" y="74" width="10" height="84" fill="url(#bar)" stroke="#38bdf8" stroke-width="0.5" rx="1"/>
  <rect x="586" y="60" width="10" height="98" fill="url(#bar)" stroke="#38bdf8" stroke-width="0.5" rx="1"/>
  <rect x="598" y="70" width="10" height="88" fill="url(#bar)" stroke="#38bdf8" stroke-width="0.5" rx="1"/>
  <rect x="610" y="56" width="10" height="102" fill="url(#bar)" stroke="#38bdf8" stroke-width="0.5" rx="1"/>
  <rect x="622" y="66" width="10" height="92" fill="url(#bar)" stroke="#38bdf8" stroke-width="0.5" rx="1"/>
  <rect x="634" y="76" width="10" height="82" fill="url(#bar)" stroke="#38bdf8" stroke-width="0.5" rx="1"/>
  <rect x="646" y="62" width="10" height="96" fill="url(#bar)" stroke="#38bdf8" stroke-width="0.5" rx="1"/>
  <rect x="658" y="70" width="10" height="88" fill="url(#bar)" stroke="#38bdf8" stroke-width="0.5" rx="1"/>

  <!-- Label: all one device -->
  <rect x="176" y="30" width="348" height="18" fill="#0e1a3a" stroke="#38bdf8" stroke-width="1" rx="4"/>
  <text x="350" y="43" text-anchor="middle" font-size="10" font-weight="600" fill="#7dd3fc">All subcarriers — one device per transmission</text>

  <!-- Footer captions -->
  <text x="350" y="198" text-anchor="middle" font-size="9" fill="#94a3b8">Subcarriers are orthogonal — no interference despite overlapping in frequency</text>
  <text x="350" y="212" text-anchor="middle" font-size="9" fill="#94a3b8">But the entire channel still serves one device at a time</text>
</svg>
