<?xml version="1.0" encoding="UTF-8"?>
<svg xmlns="http://www.w3.org/2000/svg" viewBox="0 0 700 250" width="700" height="250" font-family="system-ui,-apple-system,BlinkMacSystemFont,'Segoe UI',sans-serif">

  <defs>
    <!-- Clip fills to the rounded channel outline so inner corners stay sharp -->
    <clipPath id="clip-r1">
      <rect x="62" y="58" width="601" height="38" rx="4"/>
    </clipPath>
    <clipPath id="clip-r2">
      <rect x="62" y="138" width="601" height="38" rx="4"/>
    </clipPath>
  </defs>

  <!-- Background -->
  <rect width="700" height="250" fill="#f8fafc" rx="12"/>

  <!-- Title -->
  <text x="350" y="26" text-anchor="middle" font-size="14" font-weight="700" fill="#111827">Preamble Puncturing — Wide Channel Around Interference</text>

  <!-- ===== WITHOUT PUNCTURING ===== -->
  <text x="62"  y="50" font-size="11" font-weight="600" fill="#374151">Without Puncturing</text>
  <text x="663" y="50" text-anchor="end" font-size="10" font-weight="600" fill="#ef4444">→ 160 MHz effective</text>

  <!-- Segment fills, clipped to the rounded channel shape -->
  <rect x="62"  y="58" width="300" height="38" fill="#bfdbfe" clip-path="url(#clip-r1)"/>
  <rect x="362" y="58" width="150" height="38" fill="#fecaca" clip-path="url(#clip-r1)"/>
  <rect x="512" y="58" width="151" height="38" fill="#f3f4f6" clip-path="url(#clip-r1)"/>

  <!-- Outer channel border (rounded) -->
  <rect x="62" y="58" width="601" height="38" fill="none" stroke="#d1d5db" stroke-width="1.5" rx="4"/>
  <!-- Internal segment dividers -->
  <line x1="362" y1="60" x2="362" y2="94" stroke="#d1d5db" stroke-width="1.5"/>
  <line x1="512" y1="60" x2="512" y2="94" stroke="#d1d5db" stroke-width="1.5"/>

  <!-- Segment labels -->
  <text x="212" y="81" text-anchor="middle" font-size="11" font-weight="600" fill="#1d4ed8">Active — 160 MHz</text>
  <text x="437" y="75" text-anchor="middle" font-size="10" font-weight="600" fill="#b91c1c">Interference</text>
  <text x="437" y="88" text-anchor="middle" font-size="9"  fill="#b91c1c">80 MHz</text>
  <text x="588" y="75" text-anchor="middle" font-size="10" fill="#9ca3af">Unused</text>
  <text x="588" y="88" text-anchor="middle" font-size="9"  fill="#9ca3af">80 MHz</text>

  <!-- ===== WITH PREAMBLE PUNCTURING ===== -->
  <text x="62"  y="130" font-size="11" font-weight="600" fill="#374151">With Preamble Puncturing</text>
  <text x="663" y="130" text-anchor="end" font-size="10" font-weight="600" fill="#1d4ed8">→ 240 MHz effective</text>

  <!-- Segment fills, clipped -->
  <rect x="62"  y="138" width="300" height="38" fill="#bfdbfe" clip-path="url(#clip-r2)"/>
  <rect x="362" y="138" width="150" height="38" fill="#f3f4f6" clip-path="url(#clip-r2)"/>
  <rect x="512" y="138" width="151" height="38" fill="#bfdbfe" clip-path="url(#clip-r2)"/>

  <!-- Diagonal hatch on punctured block, clipped so lines stay within bounds -->
  <g clip-path="url(#clip-r2)">
    <line x1="362" y1="138" x2="412" y2="176" stroke="#d1d5db" stroke-width="1"/>
    <line x1="382" y1="138" x2="432" y2="176" stroke="#d1d5db" stroke-width="1"/>
    <line x1="402" y1="138" x2="452" y2="176" stroke="#d1d5db" stroke-width="1"/>
    <line x1="422" y1="138" x2="472" y2="176" stroke="#d1d5db" stroke-width="1"/>
    <line x1="442" y1="138" x2="492" y2="176" stroke="#d1d5db" stroke-width="1"/>
    <line x1="462" y1="138" x2="512" y2="176" stroke="#d1d5db" stroke-width="1"/>
  </g>

  <!-- Outer channel border -->
  <rect x="62" y="138" width="601" height="38" fill="none" stroke="#d1d5db" stroke-width="1.5" rx="4"/>
  <!-- Internal segment dividers -->
  <line x1="362" y1="140" x2="362" y2="174" stroke="#9ca3af" stroke-width="1.5"/>
  <line x1="512" y1="140" x2="512" y2="174" stroke="#9ca3af" stroke-width="1.5"/>

  <!-- Segment labels -->
  <text x="212" y="161" text-anchor="middle" font-size="11" font-weight="600" fill="#1d4ed8">Active — 160 MHz</text>
  <text x="437" y="155" text-anchor="middle" font-size="10" font-weight="600" fill="#6b7280">PUNCTURED</text>
  <text x="437" y="168" text-anchor="middle" font-size="9"  fill="#6b7280">80 MHz skipped</text>
  <text x="588" y="155" text-anchor="middle" font-size="11" font-weight="600" fill="#1d4ed8">Active</text>
  <text x="588" y="168" text-anchor="middle" font-size="10" fill="#1d4ed8">80 MHz</text>

  <!-- Active-span annotation: two underline segments flanking the punctured gap -->
  <line x1="62"  y1="192" x2="362" y2="192" stroke="#93c5fd" stroke-width="1.5"/>
  <line x1="512" y1="192" x2="663" y2="192" stroke="#93c5fd" stroke-width="1.5"/>
  <text x="437" y="200" text-anchor="middle" font-size="10" font-weight="600" fill="#1d4ed8">240 MHz active (160 + 80)</text>

  <!-- Frequency axis -->
  <line x1="62" y1="212" x2="663" y2="212" stroke="#d1d5db" stroke-width="1"/>
  <text x="62"  y="224" text-anchor="middle" font-size="9" fill="#9ca3af">0</text>
  <text x="212" y="224" text-anchor="middle" font-size="9" fill="#9ca3af">80 MHz</text>
  <text x="362" y="224" text-anchor="middle" font-size="9" fill="#9ca3af">160 MHz</text>
  <text x="512" y="224" text-anchor="middle" font-size="9" fill="#9ca3af">240 MHz</text>
  <text x="663" y="224" text-anchor="middle" font-size="9" fill="#9ca3af">320 MHz</text>

  <!-- Caption -->
  <text x="350" y="242" text-anchor="middle" font-size="11" fill="#6b7280">The preamble bitmap signals which 20 MHz sub-channels are active — clients skip the punctured region entirely</text>
</svg>
