<?xml version="1.0" encoding="UTF-8"?>
<svg xmlns="http://www.w3.org/2000/svg" viewBox="0 0 1200 630" width="1200" height="630"
     font-family="system-ui,-apple-system,BlinkMacSystemFont,'Segoe UI',sans-serif">
  <defs>
    <linearGradient id="bg" x1="0" y1="0" x2="1" y2="1">
      <stop offset="0%" stop-color="#080c14"/>
      <stop offset="100%" stop-color="#0d1520"/>
    </linearGradient>
    <linearGradient id="hex-fill" x1="0" y1="0" x2="0" y2="1">
      <stop offset="0%" stop-color="#0e3040"/>
      <stop offset="100%" stop-color="#071e2a"/>
    </linearGradient>
    <linearGradient id="textbg" x1="0" y1="0" x2="0" y2="1">
      <stop offset="0%" stop-color="#080c14" stop-opacity="0"/>
      <stop offset="60%" stop-color="#080c14" stop-opacity="0.93"/>
      <stop offset="100%" stop-color="#080c14" stop-opacity="1"/>
    </linearGradient>
    <marker id="arr" markerWidth="8" markerHeight="6" refX="7" refY="3" orient="auto">
      <polygon points="0,0 8,3 0,6" fill="#37BEC3"/>
    </marker>
  </defs>

  <!-- Background -->
  <rect width="1200" height="630" fill="url(#bg)"/>

  <!-- Subtle grid -->
  <g stroke="#0d1a2a" stroke-width="1">
    <line x1="0" y1="100" x2="1200" y2="100"/>
    <line x1="0" y1="200" x2="1200" y2="200"/>
    <line x1="0" y1="300" x2="1200" y2="300"/>
    <line x1="0" y1="400" x2="1200" y2="400"/>
    <line x1="200" y1="0" x2="200" y2="500"/>
    <line x1="400" y1="0" x2="400" y2="500"/>
    <line x1="600" y1="0" x2="600" y2="500"/>
    <line x1="800" y1="0" x2="800" y2="500"/>
    <line x1="1000" y1="0" x2="1000" y2="500"/>
  </g>

  <!-- === systemd unit (x=120, width=260, height=180, centered at y=275) === -->
  <rect x="120" y="185" width="260" height="180" fill="#0a1628" stroke="#334155" stroke-width="1.5" rx="8"/>
  <!-- File tab -->
  <rect x="120" y="185" width="260" height="26" fill="#1e293b" rx="8"/>
  <rect x="120" y="199" width="260" height="12" fill="#1e293b"/>
  <text x="250" y="203" text-anchor="middle" font-size="9" fill="#64748b">traefik.service</text>
  <!-- systemd unit content -->
  <g font-family="'Courier New',monospace" font-size="9" fill="#94a3b8">
    <text x="136" y="228" fill="#7dd3fc">[Unit]</text>
    <text x="136" y="241">Description=Traefik</text>
    <text x="136" y="254">After=network.target</text>
    <text x="136" y="271" fill="#7dd3fc">[Service]</text>
    <text x="136" y="284">User=traefik</text>
    <text x="136" y="297">ExecStart=/usr/local/bin/\</text>
    <text x="144" y="310">  traefik --configFile=\</text>
    <text x="144" y="323">  /etc/traefik/traefik.yml</text>
  </g>
  <!-- Label below -->
  <text x="250" y="378" text-anchor="middle" font-size="11" fill="#64748b">systemd Service</text>

  <!-- Arrow systemd → Traefik -->
  <path d="M 382,275 L 503,275" fill="none" stroke="#37BEC3" stroke-width="2" marker-end="url(#arr)"/>

  <!-- === Traefik Hexagon center (600,275) radius 95 === -->
  <polygon points="695,275 647,192 553,192 505,275 553,358 647,358"
           fill="url(#hex-fill)" stroke="#37BEC3" stroke-width="2.5"/>
  <!-- Converging flow mark -->
  <path d="M 538,253 C 568,253 588,273 600,275" fill="none" stroke="#ffffff" stroke-width="3" stroke-opacity="0.55" stroke-linecap="round"/>
  <path d="M 538,275 L 600,275"               fill="none" stroke="#ffffff" stroke-width="3.5" stroke-opacity="0.75" stroke-linecap="round"/>
  <path d="M 538,297 C 568,297 588,277 600,275" fill="none" stroke="#ffffff" stroke-width="3" stroke-opacity="0.55" stroke-linecap="round"/>
  <circle cx="600" cy="275" r="9" fill="#37BEC3" fill-opacity="0.25"/>
  <circle cx="600" cy="275" r="4.5" fill="#ffffff"/>
  <path d="M 600,275 C 612,273 632,253 662,253" fill="none" stroke="#37BEC3" stroke-width="3" stroke-opacity="0.75" stroke-linecap="round"/>
  <path d="M 600,275 L 662,275"               fill="none" stroke="#37BEC3" stroke-width="3.5" stroke-opacity="1" stroke-linecap="round"/>
  <path d="M 600,275 C 612,277 632,297 662,297" fill="none" stroke="#37BEC3" stroke-width="3" stroke-opacity="0.75" stroke-linecap="round"/>
  <!-- wordmark -->
  <text x="600" y="370" text-anchor="middle" font-size="13" font-weight="700" fill="#37BEC3" letter-spacing="4">traefik</text>

  <!-- Arrow Traefik → systemctl status box -->
  <path d="M 697,275 L 818,275" fill="none" stroke="#37BEC3" stroke-width="2" marker-end="url(#arr)"/>

  <!-- === systemctl status traefik output (x=820, width=260, height=210, centered at y=275) === -->
  <rect x="820" y="170" width="260" height="210" fill="#0a1628" stroke="#334155" stroke-width="1.5" rx="8"/>
  <rect x="820" y="170" width="260" height="26" fill="#1e293b" rx="8"/>
  <rect x="820" y="184" width="260" height="12" fill="#1e293b"/>
  <text x="950" y="189" text-anchor="middle" font-size="9" fill="#64748b">bash</text>
  <g font-family="'Courier New',monospace" font-size="8.5" fill="#94a3b8">
    <text x="834" y="212"><tspan fill="#4ade80">●</tspan> traefik.service</text>
    <text x="834" y="226">  Loaded: loaded</text>
    <text x="834" y="240">  Active: <tspan fill="#4ade80">active (running)</tspan></text>
    <text x="834" y="254">    Docs: https://doc.traefik.io</text>
    <text x="834" y="271" fill="#64748b">Main PID: 1823 (traefik)</text>
    <text x="834" y="285" fill="#64748b">  Memory: 42.1 MB</text>
    <text x="834" y="299" fill="#4ade80">   Tasks: 12 (limit: 4915)</text>
    <text x="834" y="313" fill="#64748b">    CPU: 0.3%</text>
    <text x="834" y="333" fill="#37BEC3">Listening :80 :443</text>
  </g>

  <!-- Cloudflare DNS badge -->
  <rect x="366" y="116" width="240" height="32" fill="#0c1a2e" stroke="#f97316" stroke-width="1.5" rx="16"/>
  <text x="486" y="137" text-anchor="middle" font-size="12" fill="#f97316" font-weight="600" letter-spacing="1">Cloudflare DNS Challenge</text>

  <!-- TLS badge -->
  <rect x="646" y="116" width="188" height="32" fill="#052e16" stroke="#4ade80" stroke-width="1.5" rx="16"/>
  <text x="740" y="137" text-anchor="middle" font-size="12" fill="#4ade80" font-weight="600" letter-spacing="1">TLS · Let's Encrypt</text>

  <!-- Bottom gradient overlay -->
  <rect x="0" y="390" width="1200" height="240" fill="url(#textbg)"/>

  <!-- Series label -->
  <text x="600" y="500" text-anchor="middle" font-size="13" fill="#37BEC3" letter-spacing="3" font-weight="600">Traefik Essentials</text>

  <!-- Title -->
  <text x="600" y="538" text-anchor="middle" font-size="34" font-weight="700" fill="#f1f5f9">Bare Metal Install</text>
</svg>
