<?xml version="1.0" encoding="UTF-8"?>
<svg xmlns="http://www.w3.org/2000/svg" viewBox="0 0 700 250" width="700" height="250" font-family="system-ui,-apple-system,BlinkMacSystemFont,'Segoe UI',sans-serif">
  <defs>
    <marker id="pmf-arr" markerWidth="8" markerHeight="6" refX="8" refY="3" orient="auto" markerUnits="userSpaceOnUse">
      <polygon points="0,0 8,3 0,6" fill="#64748b"/>
    </marker>
    <marker id="pmf-arr-red" markerWidth="8" markerHeight="6" refX="8" refY="3" orient="auto" markerUnits="userSpaceOnUse">
      <polygon points="0,0 8,3 0,6" fill="#ef4444"/>
    </marker>
  </defs>

  <!-- Background -->
  <rect width="700" height="250" fill="#f8fafc" rx="12"/>

  <!-- Title -->
  <text x="350" y="28" text-anchor="middle" font-size="14" font-weight="700" fill="#111827">PMF — Deauthentication Attack</text>

  <!-- Divider -->
  <line x1="350" y1="42" x2="350" y2="222" stroke="#e5e7eb" stroke-width="1.5" stroke-dasharray="4,3"/>

  <!-- ════ LEFT — Without PMF (WPA2) ════ -->
  <text x="175" y="52" text-anchor="middle" font-size="12" font-weight="700" fill="#374151">Without PMF (WPA2)</text>

  <!-- Actors -->
  <rect x="14" y="62" width="72" height="28" fill="#fee2e2" stroke="#fca5a5" stroke-width="1.5" rx="5"/>
  <text x="50" y="80" text-anchor="middle" font-size="11" font-weight="600" fill="#dc2626">Attacker</text>

  <rect x="130" y="62" width="72" height="28" fill="#f1f5f9" stroke="#cbd5e1" stroke-width="1.5" rx="5"/>
  <text x="166" y="80" text-anchor="middle" font-size="11" font-weight="600" fill="#374151">AP</text>

  <rect x="248" y="62" width="72" height="28" fill="#f1f5f9" stroke="#cbd5e1" stroke-width="1.5" rx="5"/>
  <text x="284" y="80" text-anchor="middle" font-size="11" font-weight="600" fill="#374151">Client</text>

  <!-- Lifelines -->
  <line x1="50" y1="90" x2="50" y2="195" stroke="#fca5a5" stroke-width="1" stroke-dasharray="3,3"/>
  <line x1="166" y1="90" x2="166" y2="195" stroke="#cbd5e1" stroke-width="1" stroke-dasharray="3,3"/>
  <line x1="284" y1="90" x2="284" y2="195" stroke="#cbd5e1" stroke-width="1" stroke-dasharray="3,3"/>

  <!-- Attacker spoofs deauth to client -->
  <line x1="58" y1="118" x2="274" y2="118" stroke="#ef4444" stroke-width="2" marker-end="url(#pmf-arr-red)"/>
  <text x="166" y="113" text-anchor="middle" font-size="9" fill="#ef4444">spoofed Deauth (pretending to be AP)</text>

  <!-- Client accepts and disconnects -->
  <text x="284" y="148" text-anchor="middle" font-size="9" fill="#dc2626">⚠ disconnects</text>
  <line x1="284" y1="153" x2="284" y2="175" stroke="#ef4444" stroke-width="1.5" stroke-dasharray="2,2"/>

  <!-- Result -->
  <rect x="14" y="195" width="316" height="22" fill="#fee2e2" stroke="#fca5a5" stroke-width="1" rx="4"/>
  <text x="172" y="210" text-anchor="middle" font-size="10" font-weight="600" fill="#dc2626">client kicked off network — no credentials needed</text>

  <!-- ════ RIGHT — With PMF (WPA3) ════ -->
  <text x="525" y="52" text-anchor="middle" font-size="12" font-weight="700" fill="#374151">With PMF (WPA3)</text>

  <!-- Actors -->
  <rect x="364" y="62" width="72" height="28" fill="#fee2e2" stroke="#fca5a5" stroke-width="1.5" rx="5"/>
  <text x="400" y="80" text-anchor="middle" font-size="11" font-weight="600" fill="#dc2626">Attacker</text>

  <rect x="480" y="62" width="72" height="28" fill="#f1f5f9" stroke="#cbd5e1" stroke-width="1.5" rx="5"/>
  <text x="516" y="80" text-anchor="middle" font-size="11" font-weight="600" fill="#374151">AP</text>

  <rect x="598" y="62" width="72" height="28" fill="#f1f5f9" stroke="#cbd5e1" stroke-width="1.5" rx="5"/>
  <text x="634" y="80" text-anchor="middle" font-size="11" font-weight="600" fill="#374151">Client</text>

  <!-- Lifelines -->
  <line x1="400" y1="90" x2="400" y2="195" stroke="#fca5a5" stroke-width="1" stroke-dasharray="3,3"/>
  <line x1="516" y1="90" x2="516" y2="195" stroke="#cbd5e1" stroke-width="1" stroke-dasharray="3,3"/>
  <line x1="634" y1="90" x2="634" y2="195" stroke="#cbd5e1" stroke-width="1" stroke-dasharray="3,3"/>

  <!-- Attacker sends deauth toward AP (intercepted) -->
  <line x1="408" y1="118" x2="506" y2="118" stroke="#ef4444" stroke-width="2" marker-end="url(#pmf-arr-red)"/>
  <text x="457" y="113" text-anchor="middle" font-size="9" fill="#ef4444">spoofed Deauth (no valid signature)</text>

  <!-- AP rejects -->
  <rect x="492" y="128" width="48" height="22" fill="#fef9c3" stroke="#facc15" stroke-width="1" rx="3"/>
  <text x="516" y="143" text-anchor="middle" font-size="9" font-weight="600" fill="#92400e">rejected</text>

  <!-- Client untouched -->
  <text x="634" y="158" text-anchor="middle" font-size="9" fill="#10b981">✓ stays connected</text>

  <!-- Result -->
  <rect x="364" y="195" width="320" height="22" fill="#dcfce7" stroke="#86efac" stroke-width="1" rx="4"/>
  <text x="524" y="210" text-anchor="middle" font-size="10" font-weight="600" fill="#16a34a">unsigned frames rejected — deauth attack blocked</text>

  <!-- Caption -->
  <text x="350" y="238" text-anchor="middle" font-size="11" fill="#6b7280">PMF signs management frames so spoofed deauth/disassoc packets are ignored</text>
</svg>
