<?xml version="1.0" encoding="UTF-8"?>
<svg xmlns="http://www.w3.org/2000/svg" viewBox="0 0 700 210" width="700" height="210" font-family="system-ui,-apple-system,BlinkMacSystemFont,'Segoe UI',sans-serif">
  <defs>
    <linearGradient id="bg" x1="0" y1="0" x2="1" y2="1">
      <stop offset="0%" stop-color="#080c14"/>
      <stop offset="100%" stop-color="#0d1520"/>
    </linearGradient>
    <marker id="pmf-arr-red" markerWidth="8" markerHeight="6" refX="7" refY="3" orient="auto" markerUnits="userSpaceOnUse">
      <polygon points="0,0 8,3 0,6" fill="#ef4444"/>
    </marker>
  </defs>

  <rect width="700" height="210" fill="url(#bg)" rx="8"/>

  <!-- Divider -->
  <line x1="350" y1="16" x2="350" y2="198" stroke="#0d1a2a" stroke-width="1.5" stroke-dasharray="4,3"/>

  <!-- LEFT — Without PMF (WPA2) -->
  <text x="175" y="30" text-anchor="middle" font-size="12" font-weight="700" fill="#94a3b8">Without PMF (WPA2)</text>

  <!-- Actors -->
  <rect x="14" y="38" width="72" height="28" fill="#150808" stroke="#ef4444" stroke-width="1.5" rx="5"/>
  <text x="50" y="56" text-anchor="middle" font-size="11" font-weight="600" fill="#fca5a5">Attacker</text>

  <rect x="130" y="38" width="72" height="28" fill="#042a40" stroke="#38bdf8" stroke-width="1.5" rx="5"/>
  <text x="166" y="56" text-anchor="middle" font-size="11" font-weight="600" fill="#7dd3fc">AP</text>

  <rect x="248" y="38" width="72" height="28" fill="#0a1020" stroke="#334155" stroke-width="1.5" rx="5"/>
  <text x="284" y="56" text-anchor="middle" font-size="11" font-weight="600" fill="#94a3b8">Client</text>

  <!-- Lifelines -->
  <line x1="50" y1="66" x2="50" y2="172" stroke="#1e293b" stroke-width="2" stroke-dasharray="3,3"/>
  <line x1="166" y1="66" x2="166" y2="172" stroke="#1e293b" stroke-width="2" stroke-dasharray="3,3"/>
  <line x1="284" y1="66" x2="284" y2="172" stroke="#1e293b" stroke-width="2" stroke-dasharray="3,3"/>

  <!-- Attacker spoofs deauth to client -->
  <line x1="58" y1="96" x2="274" y2="96" stroke="#ef4444" stroke-width="1.5" marker-end="url(#pmf-arr-red)"/>
  <text x="166" y="87" text-anchor="middle" font-size="9" fill="#fca5a5">spoofed Deauth (pretending to be AP)</text>

  <!-- Client accepts and disconnects -->
  <text x="284" y="124" text-anchor="middle" font-size="9" fill="#fca5a5">disconnects</text>
  <line x1="284" y1="129" x2="284" y2="151" stroke="#ef4444" stroke-width="1.5" stroke-dasharray="2,2"/>

  <!-- Result -->
  <rect x="14" y="172" width="316" height="22" fill="none" stroke="#ef4444" stroke-width="1" rx="4"/>
  <text x="172" y="187" text-anchor="middle" font-size="10" font-weight="600" fill="#fca5a5">client kicked off network &#8212; no credentials needed</text>

  <!-- RIGHT — With PMF (WPA3) -->
  <text x="525" y="30" text-anchor="middle" font-size="12" font-weight="700" fill="#94a3b8">With PMF (WPA3)</text>

  <!-- Actors -->
  <rect x="364" y="38" width="72" height="28" fill="#150808" stroke="#ef4444" stroke-width="1.5" rx="5"/>
  <text x="400" y="56" text-anchor="middle" font-size="11" font-weight="600" fill="#fca5a5">Attacker</text>

  <rect x="480" y="38" width="72" height="28" fill="#042a40" stroke="#38bdf8" stroke-width="1.5" rx="5"/>
  <text x="516" y="56" text-anchor="middle" font-size="11" font-weight="600" fill="#7dd3fc">AP</text>

  <rect x="598" y="38" width="72" height="28" fill="#0a1020" stroke="#334155" stroke-width="1.5" rx="5"/>
  <text x="634" y="56" text-anchor="middle" font-size="11" font-weight="600" fill="#94a3b8">Client</text>

  <!-- Lifelines -->
  <line x1="400" y1="66" x2="400" y2="172" stroke="#1e293b" stroke-width="2" stroke-dasharray="3,3"/>
  <line x1="516" y1="66" x2="516" y2="172" stroke="#1e293b" stroke-width="2" stroke-dasharray="3,3"/>
  <line x1="634" y1="66" x2="634" y2="172" stroke="#1e293b" stroke-width="2" stroke-dasharray="3,3"/>

  <!-- Attacker sends deauth toward AP -->
  <line x1="408" y1="96" x2="506" y2="96" stroke="#ef4444" stroke-width="1.5" marker-end="url(#pmf-arr-red)"/>
  <text x="457" y="87" text-anchor="middle" font-size="9" fill="#fca5a5">spoofed Deauth (no valid signature)</text>

  <!-- AP rejects -->
  <rect x="486" y="104" width="60" height="22" fill="none" stroke="#f97316" stroke-width="1" rx="3"/>
  <text x="516" y="119" text-anchor="middle" font-size="9" font-weight="600" fill="#fed7aa">rejected</text>

  <!-- Client untouched -->
  <text x="634" y="135" text-anchor="middle" font-size="9" fill="#86efac">stays connected</text>

  <!-- Result -->
  <rect x="364" y="172" width="320" height="22" fill="none" stroke="#4ade80" stroke-width="1" rx="4"/>
  <text x="524" y="187" text-anchor="middle" font-size="10" font-weight="600" fill="#86efac">unsigned frames rejected &#8212; deauth attack blocked</text>
</svg>
