<?xml version="1.0" encoding="UTF-8"?>
<svg xmlns="http://www.w3.org/2000/svg" viewBox="0 0 700 240" width="700" height="240"
     font-family="system-ui,-apple-system,BlinkMacSystemFont,'Segoe UI',sans-serif">
  <defs>
    <linearGradient id="bg" x1="0" y1="0" x2="1" y2="1">
      <stop offset="0%" stop-color="#080c14"/>
      <stop offset="100%" stop-color="#0d1520"/>
    </linearGradient>
    <marker id="arr-orange" markerWidth="8" markerHeight="6" refX="7" refY="3" orient="auto" markerUnits="userSpaceOnUse">
      <polygon points="0,0 8,3 0,6" fill="#f97316"/>
    </marker>
  </defs>

  <rect width="700" height="240" fill="url(#bg)" rx="8"/>

  <!-- Grafana Alloy (collector) -->
  <rect x="60" y="68" width="150" height="114" fill="none" stroke="#f97316" stroke-width="1.5" rx="5"/>
  <text x="135" y="120" text-anchor="middle" font-size="13" font-weight="700" fill="#fed7aa">Grafana Alloy</text>
  <text x="135" y="137" text-anchor="middle" font-size="9" fill="#f97316" opacity="0.8">telemetry collector</text>

  <!-- Alloy -> Prometheus -->
  <line x1="210" y1="75" x2="300" y2="75" stroke="#f97316" stroke-width="1.5" marker-end="url(#arr-orange)"/>
  <text x="255" y="67" text-anchor="middle" font-size="8" fill="#fdba74">remote_write</text>

  <!-- Alloy -> Loki -->
  <line x1="210" y1="175" x2="300" y2="175" stroke="#f97316" stroke-width="1.5" marker-end="url(#arr-orange)"/>
  <text x="255" y="192" text-anchor="middle" font-size="8" fill="#fdba74">push logs</text>

  <!-- Prometheus -->
  <rect x="300" y="50" width="140" height="50" fill="none" stroke="#f97316" stroke-width="1.5" rx="5"/>
  <text x="370" y="72" text-anchor="middle" font-size="13" font-weight="700" fill="#fed7aa">Prometheus</text>
  <text x="370" y="89" text-anchor="middle" font-size="9" fill="#f97316" opacity="0.8">metrics · :9090</text>

  <!-- Loki -->
  <rect x="300" y="150" width="140" height="50" fill="none" stroke="#f97316" stroke-width="1.5" rx="5"/>
  <text x="370" y="172" text-anchor="middle" font-size="13" font-weight="700" fill="#fed7aa">Loki</text>
  <text x="370" y="189" text-anchor="middle" font-size="9" fill="#f97316" opacity="0.8">logs · :3100</text>

  <!-- Prometheus -> Grafana -->
  <line x1="440" y1="75" x2="530" y2="110" stroke="#f97316" stroke-width="1.5" marker-end="url(#arr-orange)"/>
  <text x="485" y="82" text-anchor="middle" font-size="8" fill="#fdba74">query</text>

  <!-- Loki -> Grafana -->
  <line x1="440" y1="175" x2="530" y2="140" stroke="#f97316" stroke-width="1.5" marker-end="url(#arr-orange)"/>
  <text x="485" y="167" text-anchor="middle" font-size="8" fill="#fdba74">query</text>

  <!-- Grafana -->
  <rect x="530" y="90" width="140" height="70" fill="none" stroke="#f97316" stroke-width="1.5" rx="5"/>
  <text x="600" y="119" text-anchor="middle" font-size="13" font-weight="700" fill="#fed7aa">Grafana</text>
  <text x="600" y="136" text-anchor="middle" font-size="9" fill="#f97316" opacity="0.8">dashboards · :3000</text>
</svg>
